<svg width="420" height="227" viewBox="0 0 420 227" fill="none" xmlns="http://www.w3.org/2000/svg">
<path d="M33.4808 184.969H34.9712L35.4502 197.212H33.4808C32.7001 194.089 31.1919 191.64 28.9563 189.866C26.7207 188.092 24.0238 187.205 20.8656 187.205C18.701 187.205 16.767 187.631 15.0637 188.482C13.3604 189.334 11.9232 190.558 10.7522 192.155C9.58115 193.752 8.68514 195.704 8.06414 198.01C7.44314 200.317 7.13264 202.925 7.13264 205.835C7.13264 211.548 8.32141 215.939 10.699 219.009C13.0765 222.078 16.5186 223.613 21.0253 223.613C27.874 223.613 32.2743 219.976 34.226 212.701H36.4083V225.955H34.5453L33.3211 221.75C29.5951 224.908 25.0884 226.487 19.801 226.487C16.7847 226.487 14.0612 226.008 11.6304 225.05C9.19967 224.092 7.12375 222.735 5.4027 220.978C3.68164 219.222 2.35093 217.084 1.41056 214.564C0.470191 212.045 0 209.241 0 206.154C0 202.925 0.496802 199.98 1.4904 197.318C2.484 194.657 3.87681 192.368 5.66884 190.452C7.46087 188.535 9.60775 187.054 12.1095 186.007C14.6112 184.96 17.3703 184.437 20.3865 184.437C22.5157 184.437 24.5206 184.738 26.4014 185.342C28.2821 185.945 30.3225 186.921 32.5227 188.269L33.4808 184.969Z" fill="black"/>
<path d="M82.1051 211.104H67.8931C67.2898 212.559 66.7753 213.846 66.3494 214.963C65.9236 216.081 65.5777 217.048 65.3115 217.864C65.0454 218.681 64.859 219.372 64.7526 219.94C64.6461 220.508 64.5929 220.969 64.5929 221.324C64.5929 222.318 64.9123 223.001 65.551 223.374C66.1898 223.746 67.2543 223.932 68.7447 223.932V225.955H55.8102V223.932C56.6264 223.826 57.3272 223.684 57.9127 223.507C58.4982 223.329 59.0128 223.081 59.4563 222.761C59.8999 222.442 60.2903 222.025 60.6274 221.51C60.9645 220.996 61.2927 220.366 61.6121 219.621L75.4515 184.969H77.7404L89.8232 214.99C90.6394 216.977 91.3491 218.565 91.9524 219.754C92.5556 220.943 93.1412 221.839 93.7089 222.442C94.2767 223.045 94.8888 223.436 95.5453 223.613C96.2018 223.79 96.9913 223.879 97.914 223.879V225.955H80.5615V223.879C82.4422 223.879 83.7374 223.702 84.4472 223.347C85.1569 222.992 85.5117 222.407 85.5117 221.59C85.5117 221.235 85.494 220.907 85.4585 220.606C85.423 220.304 85.3609 219.976 85.2722 219.621C85.1835 219.266 85.0593 218.867 84.8996 218.423C84.7399 217.98 84.5359 217.456 84.2875 216.853L82.1051 211.104ZM68.9577 208.443H81.0938L75.1854 192.74L68.9577 208.443Z" fill="black"/>
<path d="M116.943 213.446H118.913C119.161 215.043 119.631 216.48 120.323 217.758C121.015 219.035 121.885 220.118 122.931 221.005C123.978 221.892 125.185 222.575 126.551 223.054C127.917 223.533 129.399 223.773 130.995 223.773C133.621 223.773 135.697 223.152 137.223 221.91C138.749 220.668 139.512 218.982 139.512 216.853C139.512 215.966 139.361 215.15 139.06 214.404C138.758 213.659 138.252 212.941 137.543 212.249C136.833 211.557 135.884 210.874 134.695 210.199C133.506 209.525 132.007 208.798 130.197 208.017C127.997 207.059 126.152 206.136 124.661 205.249C123.171 204.362 121.982 203.439 121.095 202.481C120.208 201.523 119.578 200.503 119.205 199.421C118.833 198.338 118.646 197.105 118.646 195.721C118.646 194.089 118.939 192.581 119.525 191.197C120.11 189.813 120.935 188.615 122 187.604C123.064 186.593 124.324 185.812 125.779 185.262C127.234 184.712 128.831 184.437 130.57 184.437C132.131 184.437 133.586 184.685 134.934 185.182C136.283 185.679 137.649 186.477 139.033 187.577L140.417 185.182H141.641L142.227 195.774H140.257C139.406 192.865 138.172 190.7 136.558 189.281C134.943 187.861 133 187.151 130.729 187.151C128.565 187.151 126.844 187.684 125.566 188.748C124.289 189.813 123.65 191.25 123.65 193.06C123.65 193.911 123.792 194.683 124.076 195.375C124.36 196.067 124.821 196.724 125.46 197.345C126.098 197.966 126.932 198.587 127.961 199.208C128.991 199.829 130.268 200.476 131.794 201.151C134.42 202.322 136.602 203.413 138.341 204.424C140.08 205.435 141.464 206.447 142.493 207.458C143.522 208.469 144.249 209.534 144.675 210.652C145.101 211.77 145.314 213.021 145.314 214.404C145.314 216.179 144.959 217.811 144.249 219.301C143.54 220.792 142.546 222.069 141.269 223.134C139.991 224.199 138.465 225.024 136.691 225.609C134.917 226.195 132.965 226.487 130.836 226.487C128.813 226.487 126.994 226.203 125.38 225.636C123.765 225.068 122.124 224.11 120.456 222.761L118.966 225.37H117.742L116.943 213.446Z" fill="black"/>
<path d="M178.662 203.439C180.578 203.439 182.184 203.324 183.479 203.093C184.774 202.863 185.803 202.499 186.566 202.002C187.329 201.505 187.879 200.867 188.216 200.086C188.553 199.305 188.722 198.383 188.722 197.318H190.585V211.85H188.722C188.722 210.785 188.571 209.862 188.269 209.082C187.968 208.301 187.436 207.653 186.673 207.139C185.91 206.624 184.881 206.234 183.585 205.968C182.29 205.702 180.649 205.569 178.662 205.569V217.598C178.662 218.769 178.804 219.736 179.088 220.499C179.371 221.262 179.859 221.883 180.551 222.362C181.243 222.841 182.157 223.178 183.293 223.374C184.428 223.569 185.83 223.666 187.498 223.666C189.378 223.666 190.975 223.533 192.288 223.267C193.601 223.001 194.701 222.548 195.588 221.91C196.476 221.271 197.185 220.428 197.718 219.381C198.25 218.335 198.693 217.03 199.048 215.469H201.071L200.272 225.955H167.218V223.932C168.46 223.897 169.462 223.79 170.225 223.613C170.988 223.436 171.582 223.134 172.008 222.708C172.434 222.282 172.718 221.679 172.86 220.898C173.002 220.118 173.073 219.106 173.073 217.864V193.06C173.073 191.818 173.011 190.815 172.886 190.052C172.762 189.289 172.514 188.686 172.141 188.243C171.769 187.799 171.227 187.497 170.518 187.338C169.808 187.178 168.885 187.063 167.75 186.992V184.969H198.516L198.995 194.337H197.132C196.919 192.918 196.573 191.756 196.094 190.851C195.615 189.946 194.958 189.227 194.125 188.695C193.291 188.163 192.235 187.79 190.957 187.577C189.68 187.364 188.136 187.258 186.327 187.258H179.567C178.963 187.258 178.662 187.56 178.662 188.163L178.662 203.439Z" fill="black"/>
<path d="M254.033 225.955V223.932C255.417 223.897 256.526 223.79 257.36 223.613C258.194 223.436 258.833 223.134 259.276 222.708C259.72 222.282 260.022 221.679 260.181 220.898C260.341 220.118 260.421 219.106 260.421 217.864V193.06C260.421 191.818 260.359 190.815 260.234 190.052C260.11 189.289 259.862 188.686 259.489 188.243C259.117 187.799 258.576 187.497 257.866 187.338C257.156 187.178 256.233 187.063 255.098 186.992V184.969H271.013C275.804 184.969 279.53 185.821 282.191 187.524C284.853 189.227 286.183 191.623 286.183 194.71C286.183 197.052 285.447 198.968 283.974 200.459C282.502 201.949 280.169 203.173 276.975 204.131V204.344C278.075 204.451 279.033 204.575 279.849 204.717C280.665 204.859 281.393 205.027 282.032 205.223C282.67 205.418 283.265 205.657 283.815 205.941C284.365 206.225 284.906 206.544 285.438 206.899C288.596 209.135 290.176 211.938 290.176 215.309C290.176 217.19 289.652 218.938 288.605 220.552C287.558 222.167 286.095 223.436 284.214 224.358C283.611 224.678 282.99 224.935 282.351 225.13C281.712 225.325 280.967 225.485 280.115 225.609C279.264 225.733 278.279 225.822 277.161 225.875C276.043 225.928 274.721 225.955 273.196 225.955L254.033 225.955ZM273.355 223.666C279.778 223.666 282.99 220.916 282.99 215.416C282.99 211.406 281.34 208.603 278.039 207.006C277.472 206.757 276.922 206.544 276.389 206.367C275.857 206.19 275.236 206.056 274.526 205.968C273.817 205.879 272.974 205.817 271.998 205.781C271.022 205.746 269.824 205.728 268.405 205.728H266.01V217.598C266.01 219.763 266.578 221.315 267.713 222.256C268.849 223.196 270.729 223.666 273.355 223.666ZM268.991 203.067C270.091 203.067 271.013 203.049 271.758 203.014C272.504 202.978 273.142 202.916 273.675 202.827C274.207 202.739 274.677 202.614 275.085 202.455C275.493 202.295 275.91 202.073 276.336 201.789C277.472 201.08 278.279 200.228 278.758 199.234C279.237 198.241 279.477 196.946 279.477 195.349C279.477 192.545 278.794 190.531 277.427 189.307C276.061 188.083 273.923 187.471 271.013 187.471H266.915C266.311 187.471 266.01 187.772 266.01 188.376V203.067H268.991Z" fill="black"/>
<path d="M322.991 203.439C324.907 203.439 326.513 203.324 327.808 203.093C329.103 202.863 330.132 202.499 330.895 202.002C331.658 201.505 332.208 200.867 332.546 200.086C332.883 199.305 333.051 198.383 333.051 197.318H334.914V211.85H333.051C333.051 210.785 332.9 209.862 332.599 209.082C332.297 208.301 331.765 207.653 331.002 207.139C330.239 206.624 329.21 206.234 327.915 205.968C326.619 205.702 324.978 205.569 322.991 205.569V217.598C322.991 218.769 323.133 219.736 323.417 220.499C323.701 221.262 324.189 221.883 324.881 222.362C325.573 222.841 326.486 223.178 327.622 223.374C328.757 223.569 330.159 223.666 331.827 223.666C333.708 223.666 335.305 223.533 336.618 223.267C337.93 223.001 339.031 222.548 339.918 221.91C340.805 221.271 341.515 220.428 342.047 219.381C342.579 218.335 343.023 217.03 343.378 215.469H345.4L344.602 225.955H311.547V223.932C312.789 223.897 313.791 223.79 314.554 223.613C315.317 223.436 315.912 223.134 316.337 222.708C316.763 222.282 317.047 221.679 317.189 220.898C317.331 220.118 317.402 219.106 317.402 217.864V193.06C317.402 191.818 317.34 190.815 317.216 190.052C317.091 189.289 316.843 188.686 316.471 188.243C316.098 187.799 315.557 187.497 314.847 187.338C314.137 187.178 313.215 187.063 312.079 186.992V184.969H342.845L343.324 194.337H341.461C341.248 192.918 340.902 191.756 340.423 190.851C339.944 189.946 339.288 189.227 338.454 188.695C337.62 188.163 336.564 187.79 335.287 187.577C334.009 187.364 332.466 187.258 330.656 187.258H323.896C323.293 187.258 322.991 187.56 322.991 188.163V203.439Z" fill="black"/>
<path d="M393.705 216.427L407.544 184.969H419.468V186.992C418.332 187.027 417.418 187.169 416.726 187.418C416.034 187.666 415.502 188.083 415.13 188.668C414.757 189.254 414.509 190.061 414.384 191.09C414.26 192.119 414.198 193.432 414.198 195.029V215.895C414.198 217.669 414.269 219.071 414.411 220.1C414.553 221.129 414.828 221.927 415.236 222.495C415.644 223.063 416.23 223.436 416.993 223.613C417.755 223.79 418.758 223.897 420 223.932V225.955H402.754V223.932C403.996 223.897 404.998 223.782 405.761 223.586C406.524 223.391 407.119 223.028 407.544 222.495C407.97 221.963 408.254 221.209 408.396 220.233C408.538 219.257 408.609 217.935 408.609 216.267V191.569H408.077L392.534 226.487H391.363L376.086 191.569H375.873V215.895C375.873 217.669 375.944 219.071 376.086 220.1C376.228 221.129 376.503 221.927 376.911 222.495C377.319 223.063 377.905 223.436 378.668 223.613C379.431 223.79 380.433 223.897 381.675 223.932V225.955H366.825V223.932C368.067 223.897 369.069 223.782 369.832 223.586C370.595 223.391 371.189 223.028 371.615 222.495C372.041 221.963 372.325 221.209 372.467 220.233C372.609 219.257 372.68 217.935 372.68 216.267V194.657C372.68 193.166 372.618 191.933 372.493 190.957C372.369 189.981 372.121 189.21 371.748 188.642C371.376 188.074 370.834 187.675 370.125 187.444C369.415 187.214 368.492 187.063 367.357 186.992V184.969H380.079L393.492 216.427H393.705Z" fill="black"/>
<path fill-rule="evenodd" clip-rule="evenodd" d="M210 142.837C170.62 142.837 138.581 110.799 138.581 71.4185C138.581 32.0381 170.62 0 210 0C249.38 0 281.419 32.0381 281.419 71.4185C281.419 110.799 249.38 142.837 210 142.837ZM210 4.60764C173.161 4.60764 143.189 34.5793 143.189 71.4185C143.189 108.258 173.161 138.229 210 138.229C246.839 138.229 276.811 108.258 276.811 71.4185C276.811 34.5793 246.839 4.60764 210 4.60764ZM179.005 36.7898C178.412 36.7898 177.819 36.5628 177.369 36.1067C176.474 35.2036 176.48 33.7441 177.385 32.8491L179.066 31.184L177.385 29.5189C176.48 28.6239 176.474 27.1644 177.369 26.2613C178.265 25.3547 179.723 25.3501 180.626 26.2451L182.34 27.942L184.053 26.2451C184.956 25.349 186.415 25.3547 187.311 26.2613C188.206 27.1644 188.199 28.6239 187.295 29.5189L185.613 31.1839L187.295 32.8491C188.199 33.7441 188.206 35.2036 187.311 36.1067C186.86 36.5617 186.267 36.7897 185.674 36.7897C185.088 36.7897 184.501 36.5686 184.053 36.1228L182.339 34.4254L180.626 36.1216C180.178 36.5674 179.592 36.7898 179.005 36.7898ZM216.524 96.2929C215.838 96.2929 215.179 95.9854 214.735 95.4417C214.632 95.3149 213.863 94.3659 212.715 92.8935C208.669 99.9797 201.083 109.398 200.759 109.799C200.319 110.346 199.657 110.656 198.968 110.656C198.822 110.656 198.674 110.642 198.527 110.613C198.011 110.513 185.812 108.115 178.359 105.326C164.518 100.151 156.092 93.6251 153.317 85.9303C149.573 75.5493 154.945 63.9576 165.294 60.0895V60.0883C167.926 59.1069 170.926 58.7763 174.218 59.108C177.053 59.396 179.717 60.2116 182.042 61.4937C183.923 56.4384 187.778 52.2785 192.717 50.0693C192.75 47.4627 193.163 45.0615 193.957 42.8719C195.945 37.3934 199.954 33.0184 205.244 30.5522C210.533 28.0859 216.462 27.829 221.937 29.8253C228.06 32.06 232.855 36.9614 235.034 43.0135C237.624 41.546 240.614 40.6141 243.802 40.2939C247.384 39.9333 250.653 40.2893 253.518 41.3536C264.801 45.5454 270.657 58.1151 266.573 69.3716C263.539 77.7322 254.307 84.8314 239.132 90.4758C230.943 93.5203 217.529 96.142 216.962 96.2515C216.817 96.2791 216.67 96.2929 216.524 96.2929ZM197.391 48.6331C197.522 47.1302 197.821 45.7326 198.288 44.4431C199.856 40.1222 203.018 36.6711 207.192 34.7255C209.509 33.6462 211.981 33.1025 214.46 33.1025C216.446 33.1025 218.438 33.4515 220.358 34.1519C226.041 36.2265 230.276 41.2131 231.408 47.165C231.56 47.9633 232.121 48.6222 232.885 48.8998C233.65 49.1786 234.502 49.0323 235.131 48.5174C235.38 48.3135 235.632 48.1188 235.89 47.9311C238.199 46.2516 241.095 45.1953 244.265 44.8773C247.102 44.5905 249.747 44.8658 251.915 45.671C260.834 48.9839 265.468 58.9111 262.244 67.7981C259.692 74.8282 251.375 81.0048 237.527 86.155C231.166 88.521 221.081 90.7027 217.446 91.4526C216.874 90.7306 216.054 89.6849 215.092 88.4283L217.084 84.1472C220.928 75.1035 221.796 67.517 219.66 61.5985C217.831 56.5278 214.138 52.4834 209.263 50.2095C205.5 48.4563 201.386 47.923 197.391 48.6331ZM197.485 53.3156C200.775 52.5718 204.201 52.9329 207.317 54.3864C211.072 56.1361 213.918 59.2532 215.328 63.1616C217.055 67.9501 216.22 74.4055 212.877 82.273L211.961 84.2416C209.656 81.0779 207.194 77.5006 205.46 74.4469C204.676 73.0658 203.924 71.665 203.253 70.3461L201.027 65.5968C199.085 61.055 197.903 56.952 197.485 53.3156ZM193.083 55.0577C189.259 57.3093 186.502 61.1634 185.659 65.6187C185.507 66.4181 184.945 67.0793 184.18 67.3557C183.416 67.6334 182.561 67.4871 181.931 66.9698C181.709 66.7878 181.482 66.6105 181.252 66.4423C179.186 64.931 176.595 63.9795 173.754 63.6927C171.212 63.4346 168.843 63.6823 166.908 64.4045C158.912 67.3938 154.759 76.3487 157.651 84.366C159.947 90.7292 167.458 96.3298 179.974 101.01C185.661 103.138 194.64 105.103 198.044 105.811C200.185 103.089 205.768 95.8345 208.83 90.4078C209.113 89.9064 209.391 89.4021 209.664 88.8973C206.929 85.2325 203.672 80.6305 201.453 76.7219C200.634 75.2797 199.846 73.8145 199.112 72.3677L196.822 67.4813C194.903 62.9939 193.657 58.848 193.083 55.0577ZM255.017 64.8745C254.406 64.8745 253.819 64.6326 253.381 64.2076C252.955 63.7814 252.713 63.1812 252.713 62.5707C252.713 61.9613 252.955 61.3739 253.392 60.9477C254.245 60.0952 255.777 60.0837 256.641 60.9477C257.067 61.3739 257.321 61.9613 257.321 62.5707C257.321 63.1812 257.067 63.7687 256.641 64.2076C256.215 64.6326 255.616 64.8745 255.017 64.8745ZM229.675 81.8019C228.719 81.8019 227.827 81.2017 227.496 80.2479C227.082 79.0453 227.72 77.7333 228.922 77.3186C229.331 77.1781 229.73 77.0353 230.115 76.8924C238.754 73.6797 245.311 70.0132 249.605 65.9965C250.536 65.128 251.994 65.1775 252.861 66.1059C253.731 67.0355 253.682 68.4927 252.753 69.3624C248.011 73.7984 240.936 77.7852 231.723 81.211C231.306 81.3665 230.873 81.5208 230.427 81.674C230.178 81.7604 229.923 81.8019 229.675 81.8019ZM168.566 87.2689C167.967 87.2689 167.368 87.0269 166.941 86.5892C166.504 86.163 166.262 85.564 166.262 84.965C166.262 84.3545 166.504 83.7671 166.941 83.3293C167.805 82.4769 169.337 82.4769 170.19 83.3293C170.628 83.7671 170.87 84.3545 170.87 84.965C170.87 85.5652 170.628 86.163 170.19 86.5892C169.764 87.0269 169.165 87.2689 168.566 87.2689ZM185.677 98.5023C185.456 98.5023 185.233 98.47 185.01 98.4032C184.02 98.1037 183.132 97.8077 182.371 97.5243C177.449 95.6813 173.566 93.5468 170.83 91.1796C169.868 90.3456 169.764 88.8919 170.596 87.9301C171.429 86.9682 172.884 86.8622 173.846 87.6951C176.166 89.704 179.578 91.5586 183.985 93.2081C184.651 93.4569 185.445 93.7207 186.342 93.9914C187.56 94.3589 188.25 95.6456 187.881 96.8631C187.581 97.8584 186.667 98.5023 185.677 98.5023ZM220.495 117.26C219.902 117.26 219.309 117.033 218.858 116.577C217.963 115.674 217.97 114.214 218.874 113.319L220.556 111.654L218.874 109.989C217.97 109.094 217.963 107.635 218.858 106.732C219.753 105.826 221.213 105.819 222.116 106.715L223.829 108.412L225.543 106.715C226.446 105.818 227.904 105.826 228.8 106.732C229.695 107.635 229.688 109.094 228.784 109.989L227.103 111.654L228.784 113.319C229.688 114.214 229.695 115.674 228.8 116.577C228.35 117.033 227.757 117.26 227.163 117.26C226.577 117.26 225.991 117.039 225.543 116.593L223.829 114.896L222.116 116.593C221.668 117.039 221.081 117.26 220.495 117.26Z" fill="black"/>
</svg>
