<svg xmlns:xlink="http://www.w3.org/1999/xlink" xmlns="http://www.w3.org/2000/svg" class="svg-bc-right-top standalone" width="142.83708256764464" viewBox="203.58145871617768 121.7563145554781 142.83708256764464 142.83708256764467" height="142.83708256764467" ><g data-paper-data="{&quot;fillRule&quot;:&quot;evenodd&quot;,&quot;fillRuleOriginal&quot;:&quot;evenodd&quot;,&quot;isIcon&quot;:true,&quot;iconStyle&quot;:&quot;standalone&quot;,&quot;selectedEffects&quot;:{&quot;container&quot;:&quot;&quot;,&quot;transformation&quot;:&quot;&quot;,&quot;pattern&quot;:&quot;&quot;},&quot;bounds&quot;:{&quot;x&quot;:203.58145871617768,&quot;y&quot;:121.7563145554781,&quot;width&quot;:142.83708256764464,&quot;height&quot;:142.83708256764467},&quot;iconType&quot;:&quot;icon&quot;,&quot;isDetailed&quot;:false,&quot;source&quot;:&quot;noun&quot;,&quot;rawIconId&quot;:&quot;2417357&quot;,&quot;suitableAsStandaloneIcon&quot;:true}" fill="#D9A5A3" fill-rule="evenodd"><path d="M275,264.5934c-39.38041,0 -71.41854,-32.03813 -71.41854,-71.41854c0,-39.38041 32.03813,-71.41854 71.41854,-71.41854c39.38041,0 71.41854,32.03813 71.41854,71.41854c0,39.38041 -32.03813,71.41854 -71.41854,71.41854zM275,126.36396c-36.8393,0 -66.8109,29.9716 -66.8109,66.8109c0,36.8393 29.9716,66.8109 66.8109,66.8109c36.8393,0 66.8109,-29.9716 66.8109,-66.8109c0,-36.8393 -29.9716,-66.8109 -66.8109,-66.8109zM244.0055,158.54608c-0.59324,0 -1.18647,-0.22693 -1.63687,-0.68308c-0.89504,-0.9031 -0.88813,-2.36257 0.01613,-3.25761l1.68133,-1.66509l-1.68133,-1.66509c-0.90425,-0.89504 -0.91116,-2.35451 -0.01613,-3.25761c0.89619,-0.90655 2.35451,-0.91116 3.25761,-0.01613l1.71347,1.69688l1.71347,-1.69688c0.9031,-0.89619 2.36142,-0.89042 3.25761,0.01613c0.89504,0.9031 0.88813,2.36257 -0.01613,3.25761l-1.68144,1.66497l1.68144,1.6652c0.90425,0.89504 0.91116,2.35451 0.01613,3.25761c-0.4504,0.45501 -1.04363,0.68308 -1.63687,0.68308c-0.58632,0 -1.17265,-0.22117 -1.62074,-0.66696l-1.71393,-1.69734l-1.71301,1.69619c-0.44809,0.44579 -1.03442,0.66811 -1.62074,0.66811zM281.52443,218.04924c-0.68654,0 -1.34543,-0.30756 -1.78892,-0.85127c-0.10309,-0.12671 -0.87211,-1.07577 -2.02092,-2.54814c-4.04552,7.08622 -11.63143,16.50425 -11.95524,16.90558c-0.44003,0.54716 -1.10238,0.85702 -1.79122,0.85702c-0.14629,0 -0.29374,-0.01382 -0.44118,-0.04262c-0.51606,-0.10021 -12.71481,-2.4985 -20.16767,-5.28728c-13.84138,-5.17554 -22.26761,-11.70112 -25.04257,-19.39589c-3.74372,-10.38103 1.62881,-21.97272 11.97758,-25.84084v-0.00115c2.63212,-0.98143 5.63169,-1.31203 8.92386,-0.98028c2.83485,0.28798 5.49923,1.10353 7.82379,2.38561c1.88107,-5.05528 5.73617,-9.21518 10.67557,-11.42432c0.03214,-2.60666 0.44544,-5.00783 1.2398,-7.19749c1.9882,-5.47849 5.99685,-9.85345 11.28644,-12.3197c5.28958,-2.46625 11.21847,-2.72312 16.69351,-0.72686c6.12241,2.23471 10.91782,7.1361 13.09724,13.18824c2.5895,-1.46754 5.57986,-2.39943 8.7672,-2.71966c3.58245,-0.36055 6.85157,-0.00461 9.71638,1.05976c11.28298,4.1918 17.1393,16.76147 13.05462,28.01796c-3.03414,8.36058 -12.26556,15.45981 -27.44085,21.10418c-8.18894,3.0445 -21.60296,5.66625 -22.1697,5.77569c-0.14514,0.02765 -0.29259,0.04147 -0.43772,0.04147zM262.39059,170.38946c0.13097,-1.5029 0.43024,-2.90051 0.89792,-4.19008c1.56775,-4.32082 4.72975,-7.77195 8.90313,-9.71753c2.31765,-1.07934 4.78965,-1.62304 7.26856,-1.62304c1.9859,0 3.97755,0.34903 5.89779,1.04939c5.68353,2.07459 9.91796,7.06122 11.05029,13.01315c0.15205,0.79827 0.71304,1.45717 1.47675,1.73478c0.76487,0.27876 1.61729,0.13247 2.24623,-0.38243c0.24882,-0.20389 0.50108,-0.39856 0.75911,-0.58632c2.30843,-1.67949 5.20434,-2.73579 8.3744,-3.05372c2.83716,-0.28682 5.48195,-0.01152 7.64985,0.79367c8.91925,3.3129 13.5534,13.24008 10.32919,22.12708c-2.55148,7.03012 -10.86829,13.20667 -24.71657,18.35687c-6.36086,2.36602 -16.44585,4.54775 -20.08128,5.29764c-0.57193,-0.72202 -1.39197,-1.76772 -2.35405,-3.02435l1.99235,-4.28108c3.84393,-9.04366 4.71132,-16.63015 2.57567,-22.54868c-1.82924,-5.07072 -5.52227,-9.11508 -10.39715,-11.38895c-3.76295,-1.75321 -7.87632,-2.28654 -11.87218,-1.57639zM262.48551,175.07187c3.28975,-0.74379 6.71599,-0.38267 9.83168,1.07081c3.75523,1.74975 6.60046,4.86683 8.0104,8.77527c1.72786,4.7885 0.89273,11.24381 -2.45012,19.11137l-0.91611,1.96862c-2.30578,-3.16373 -4.76753,-6.74099 -6.50104,-9.79471c-0.78445,-1.38114 -1.53665,-2.78187 -2.20706,-4.10081l-2.22664,-4.74933c-1.94178,-4.54176 -3.12318,-8.64475 -3.5411,-12.28123zM258.08279,176.81402c-3.82377,2.25164 -6.58075,6.10571 -7.42384,10.56096c-0.15205,0.79942 -0.71419,1.46062 -1.47906,1.73708c-0.76371,0.27761 -1.61844,0.13132 -2.24853,-0.38589c-0.22232,-0.182 -0.44924,-0.3594 -0.67963,-0.52758c-2.06538,-1.51131 -4.65718,-2.46279 -7.4978,-2.74961c-2.54227,-0.25803 -4.9106,-0.01037 -6.84581,0.71188c-7.99657,2.98921 -12.14922,11.94417 -9.25676,19.96148c2.29576,6.36316 9.80623,11.96376 22.3229,16.64398c5.68699,2.12758 14.66614,4.09275 18.07004,4.80117c2.14025,-2.72197 7.72357,-9.97671 10.78535,-15.40337c0.28314,-0.50143 0.56156,-1.00574 0.83445,-1.5105c-2.73487,-3.66481 -5.99213,-8.26681 -8.21129,-12.17536c-0.81901,-1.44219 -1.60692,-2.90743 -2.34069,-4.35422l-2.29,-4.88641c-1.9192,-4.48739 -3.16546,-8.63335 -3.73934,-12.4236zM320.01672,186.63085c-0.61051,0 -1.19799,-0.2419 -1.63571,-0.66696c-0.4262,-0.4262 -0.66811,-1.02636 -0.66811,-1.63687c0,-0.60936 0.2419,-1.19684 0.67963,-1.62304c0.85242,-0.85242 2.38446,-0.86394 3.24839,0c0.4262,0.4262 0.67963,1.01368 0.67963,1.62304c0,0.61051 -0.25342,1.19799 -0.67963,1.63687c-0.4262,0.42505 -1.0252,0.66696 -1.62419,0.66696zM294.67466,203.55819c-0.95609,0 -1.84767,-0.60014 -2.17827,-1.55393c-0.41469,-1.2026 0.22347,-2.51463 1.42606,-2.92931c0.40893,-0.14053 0.80749,-0.28337 1.19223,-0.4262c8.63934,-3.21268 15.19602,-6.87922 19.49035,-10.89593c0.93075,-0.86854 2.38906,-0.81901 3.25646,0.10943c0.86969,0.92959 0.82016,2.38676 -0.10828,3.25646c-4.74242,4.43601 -11.81746,8.42278 -21.03045,11.84856c-0.41699,0.15551 -0.85011,0.30986 -1.2959,0.46307c-0.24882,0.0864 -0.50339,0.12786 -0.7522,0.12786zM233.56573,209.02517c-0.59899,0 -1.19799,-0.2419 -1.62419,-0.67963c-0.43772,-0.4262 -0.67963,-1.0252 -0.67963,-1.62419c0,-0.61051 0.2419,-1.19799 0.67963,-1.63571c0.86394,-0.85242 2.39598,-0.85242 3.24839,0c0.43772,0.43772 0.67963,1.0252 0.67963,1.63571c0,0.60014 -0.2419,1.19799 -0.67963,1.62419c-0.4262,0.43772 -1.0252,0.67963 -1.62419,0.67963zM250.67738,220.25861c-0.22117,0 -0.44464,-0.03225 -0.66696,-0.09906c-0.99065,-0.29949 -1.87877,-0.59554 -2.63903,-0.87891c-4.92212,-1.84306 -8.80521,-3.97755 -11.54101,-6.34473c-0.96184,-0.83398 -1.06667,-2.2877 -0.23384,-3.24954c0.83283,-0.96184 2.2877,-1.06782 3.24954,-0.23499c2.31995,2.00893 5.73192,3.86351 10.13913,5.51305c0.66581,0.24882 1.45947,0.5126 2.35681,0.7833c1.21757,0.36746 1.90757,1.65415 1.53896,2.87172c-0.29949,0.99525 -1.21412,1.63917 -2.2036,1.63917zM285.49507,239.01635c-0.59324,0 -1.18647,-0.22693 -1.63687,-0.68308c-0.89504,-0.9031 -0.88813,-2.36257 0.01613,-3.25761l1.68133,-1.66509l-1.68133,-1.66509c-0.90425,-0.89504 -0.91116,-2.35451 -0.01613,-3.25761c0.89504,-0.9054 2.35451,-0.91231 3.25761,-0.01613l1.71347,1.69688l1.71347,-1.69688c0.9031,-0.89734 2.36142,-0.88928 3.25761,0.01613c0.89504,0.9031 0.88813,2.36257 -0.01613,3.25761l-1.68133,1.66509l1.68133,1.66509c0.90425,0.89504 0.91116,2.35451 0.01613,3.25761c-0.4504,0.45616 -1.04363,0.68308 -1.63687,0.68308c-0.58632,0 -1.17265,-0.22117 -1.62074,-0.66696l-1.71347,-1.69677l-1.71347,1.69677c-0.44809,0.44579 -1.03442,0.66696 -1.62074,0.66696z" data-paper-data="{&quot;isPathIcon&quot;:true}" style="" fill="#D9A5A3"></path></g></svg>