<svg xmlns:mydata="http://www.w3.org/2000/svg" mydata:contrastcolor="ffffff" mydata:template="Contrast" mydata:presentation="2.5" mydata:layouttype="undefined" mydata:specialfontid="undefined" mydata:id1="017" mydata:id2="197" mydata:companyname="Case Bem" mydata:companytagline="" version="1.1" xmlns="http://www.w3.org/2000/svg" xmlns:xlink="http://www.w3.org/1999/xlink" viewBox="0 0 550 470" width="550"  height="470" ><g fill="none" fill-rule="none" stroke="none" stroke-width="1" stroke-linecap="butt" stroke-linejoin="miter" stroke-miterlimit="10" stroke-dasharray="" stroke-dashoffset="0" font-family="none" font-weight="none" font-size="none" text-anchor="none" style="mix-blend-mode: normal"><g data-paper-data="{&quot;isGlobalGroup&quot;:true,&quot;bounds&quot;:{&quot;x&quot;:65,&quot;y&quot;:121.7563145554781,&quot;width&quot;:420,&quot;height&quot;:226.48737088904383}}" fill="none"><g data-paper-data="{&quot;isPrimaryText&quot;:true}" fill-rule="nonzero" fill="none"><path d="M98.48077,306.7254h1.4904l0.47906,12.24257h-1.96946c-0.78069,-3.12274 -2.28883,-5.57126 -4.52443,-7.34554c-2.2356,-1.77429 -4.93251,-2.66143 -8.09074,-2.66143c-2.16463,0 -4.0986,0.42583 -5.80191,1.27749c-1.70331,0.85166 -3.14049,2.07591 -4.31151,3.67277c-1.17103,1.59686 -2.06704,3.54857 -2.68804,5.85514c-0.621,2.30657 -0.9315,4.91477 -0.9315,7.8246c0,5.7132 1.18877,10.10456 3.56631,13.17407c2.37754,3.06951 5.81966,4.60427 10.32634,4.60427c6.84874,0 11.24897,-3.63729 13.20068,-10.91186h2.18237v13.25391h-1.863l-1.22426,-4.20506c-3.726,3.15823 -8.23268,4.73734 -13.52006,4.73734c-3.01629,0 -5.73981,-0.47906 -8.17058,-1.43717c-2.43077,-0.95811 -4.50669,-2.31544 -6.22774,-4.07199c-1.72106,-1.75654 -3.05177,-3.89456 -3.99214,-6.41404c-0.94037,-2.51949 -1.41056,-5.32286 -1.41056,-8.41011c0,-3.2292 0.4968,-6.17451 1.4904,-8.83594c0.9936,-2.66143 2.38641,-4.95026 4.17844,-6.86649c1.79203,-1.91623 3.93891,-3.39776 6.44066,-4.44459c2.50174,-1.04683 5.26076,-1.57024 8.27704,-1.57024c2.12914,0 4.13409,0.30163 6.01483,0.90489c1.88074,0.60326 3.92117,1.57911 6.12129,2.92757z" data-paper-data="{&quot;glyphName&quot;:&quot;C&quot;,&quot;glyphIndex&quot;:0,&quot;firstGlyphOfWord&quot;:true,&quot;word&quot;:1}" fill="#D9A5A3"></path><path d="M147.10506,332.86063h-14.21203c-0.60326,1.45491 -1.1178,2.74127 -1.54363,3.85907c-0.42583,1.1178 -0.77181,2.08479 -1.03796,2.90096c-0.26614,0.81617 -0.45244,1.50814 -0.5589,2.07591c-0.10646,0.56777 -0.15969,1.02909 -0.15969,1.38394c0,0.9936 0.31937,1.6767 0.95811,2.0493c0.63874,0.3726 1.70331,0.5589 3.19371,0.5589v2.02269h-12.93454v-2.02269c0.81617,-0.10646 1.51701,-0.2484 2.10253,-0.42583c0.58551,-0.17743 1.10006,-0.42583 1.54363,-0.7452c0.44357,-0.31937 0.83391,-0.73633 1.17103,-1.25087c0.33711,-0.51454 0.66536,-1.14441 0.98473,-1.88961l13.83943,-34.6518h2.28883l12.08288,30.02091c0.81617,1.9872 1.52589,3.57519 2.12914,4.76396c0.60326,1.18877 1.18877,2.08479 1.75654,2.68804c0.56777,0.60326 1.1799,0.9936 1.83639,1.17103c0.65649,0.17743 1.44604,0.26614 2.36867,0.26614v2.07591h-17.35251v-2.07591c1.88074,0 3.17597,-0.17743 3.88569,-0.53229c0.70971,-0.35486 1.06457,-0.94037 1.06457,-1.75654c0,-0.35486 -0.01774,-0.6831 -0.05323,-0.98473c-0.03549,-0.30163 -0.09759,-0.62987 -0.1863,-0.98473c-0.08871,-0.35486 -0.21291,-0.75407 -0.3726,-1.19764c-0.15969,-0.44357 -0.36373,-0.96699 -0.61213,-1.57024zM133.95761,330.1992h12.13611l-5.90837,-15.70243z" data-paper-data="{&quot;glyphName&quot;:&quot;A&quot;,&quot;glyphIndex&quot;:1,&quot;word&quot;:1}" fill="#D9A5A3"></path><path d="M181.94316,335.20269h1.96946c0.2484,1.59686 0.71859,3.03403 1.41056,4.31151c0.69197,1.27749 1.56137,2.3598 2.6082,3.24694c1.04683,0.88714 2.25334,1.57024 3.61954,2.0493c1.3662,0.47906 2.84773,0.71859 4.44459,0.71859c2.62594,0 4.70186,-0.621 6.22774,-1.863c1.52589,-1.242 2.28883,-2.92757 2.28883,-5.05671c0,-0.88714 -0.15081,-1.70331 -0.45244,-2.44851c-0.30163,-0.7452 -0.8073,-1.46379 -1.51701,-2.15576c-0.70971,-0.69197 -1.65896,-1.37507 -2.84773,-2.0493c-1.18877,-0.67423 -2.68804,-1.40169 -4.49781,-2.18237c-2.20011,-0.95811 -4.04537,-1.88074 -5.53577,-2.76789c-1.4904,-0.88714 -2.67917,-1.80977 -3.56631,-2.76789c-0.88714,-0.95811 -1.51701,-1.97833 -1.88961,-3.06064c-0.3726,-1.08231 -0.5589,-2.31544 -0.5589,-3.69939c0,-1.63234 0.29276,-3.14049 0.87827,-4.52443c0.58551,-1.38394 1.41056,-2.58159 2.47513,-3.59293c1.06457,-1.01134 2.32431,-1.79203 3.77923,-2.34206c1.45491,-0.55003 3.05177,-0.82504 4.79057,-0.82504c1.56137,0 3.01629,0.2484 4.36474,0.7452c1.34846,0.4968 2.71466,1.29523 4.0986,2.39529l1.38394,-2.39529h1.22426l0.58551,10.59248h-1.96946c-0.85166,-2.90983 -2.08479,-5.07446 -3.69939,-6.49389c-1.6146,-1.41943 -3.55744,-2.12914 -5.82853,-2.12914c-2.16463,0 -3.88569,0.53229 -5.16317,1.59686c-1.27749,1.06457 -1.91623,2.50174 -1.91623,4.31151c0,0.85166 0.14194,1.62347 0.42583,2.31544c0.28389,0.69197 0.7452,1.34846 1.38394,1.96946c0.63874,0.621 1.47266,1.242 2.50174,1.863c1.02909,0.621 2.30657,1.26861 3.83246,1.94284c2.62594,1.17103 4.80831,2.26221 6.54711,3.27356c1.7388,1.01134 3.12274,2.02269 4.15183,3.03403c1.02909,1.01134 1.75654,2.07591 2.18237,3.19371c0.42583,1.1178 0.63874,2.36867 0.63874,3.75261c0,1.77429 -0.35486,3.40663 -1.06457,4.89703c-0.70971,1.4904 -1.70331,2.76789 -2.9808,3.83246c-1.27749,1.06457 -2.80337,1.88961 -4.57766,2.47513c-1.77429,0.58551 -3.726,0.87827 -5.85514,0.87827c-2.02269,0 -3.84133,-0.28389 -5.45593,-0.85166c-1.6146,-0.56777 -3.25581,-1.52589 -4.92364,-2.87434l-1.4904,2.6082h-1.22426z" data-paper-data="{&quot;glyphName&quot;:&quot;S&quot;,&quot;glyphIndex&quot;:2,&quot;word&quot;:1}" fill="#D9A5A3"></path><path d="M243.66168,325.19572c1.91623,0 3.52196,-0.11533 4.81719,-0.34599c1.29523,-0.23066 2.32431,-0.59439 3.08726,-1.09119c0.76294,-0.4968 1.31297,-1.13554 1.65009,-1.91623c0.33711,-0.78069 0.50567,-1.70331 0.50567,-2.76789h1.863v14.5314h-1.863c0,-1.06457 -0.15081,-1.9872 -0.45244,-2.76789c-0.30163,-0.78069 -0.83391,-1.4283 -1.59686,-1.94284c-0.76294,-0.51454 -1.79203,-0.90489 -3.08726,-1.17103c-1.29523,-0.26614 -2.93644,-0.39921 -4.92364,-0.39921v12.02966c0,1.17103 0.14194,2.13801 0.42583,2.90096c0.28389,0.76294 0.77181,1.38394 1.46379,1.863c0.69197,0.47906 1.60573,0.81617 2.74127,1.01134c1.13554,0.19517 2.53723,0.29276 4.20506,0.29276c1.88074,0 3.4776,-0.13307 4.79057,-0.39921c1.31297,-0.26614 2.41303,-0.71859 3.30017,-1.35733c0.88714,-0.63874 1.59686,-1.48153 2.12914,-2.52836c0.53229,-1.04683 0.97586,-2.35093 1.33071,-3.9123h2.02269l-0.79843,10.48603h-33.05494v-2.02269c1.242,-0.03549 2.24447,-0.14194 3.00741,-0.31937c0.76294,-0.17743 1.35733,-0.47906 1.78316,-0.90489c0.42583,-0.42583 0.70971,-1.02909 0.85166,-1.80977c0.14194,-0.78069 0.21291,-1.79203 0.21291,-3.03403v-24.80451c0,-1.242 -0.0621,-2.24447 -0.1863,-3.00741c-0.1242,-0.76294 -0.3726,-1.3662 -0.7452,-1.80977c-0.3726,-0.44357 -0.91376,-0.7452 -1.62347,-0.90489c-0.70971,-0.15969 -1.63234,-0.27501 -2.76789,-0.34599v-2.02269h30.76611l0.47906,9.36823h-1.863c-0.21291,-1.41943 -0.5589,-2.58159 -1.03796,-3.48647c-0.47906,-0.90489 -1.13554,-1.62347 -1.96946,-2.15576c-0.83391,-0.53229 -1.88961,-0.90489 -3.1671,-1.1178c-1.27749,-0.21291 -2.82111,-0.31937 -4.63089,-0.31937h-6.76003c-0.60326,0 -0.90489,0.30163 -0.90489,0.90489z" data-paper-data="{&quot;glyphName&quot;:&quot;E&quot;,&quot;glyphIndex&quot;:3,&quot;lastGlyphOfWord&quot;:true,&quot;word&quot;:1}" fill="#D9A5A3"></path><path d="M319.03333,347.7114v-2.02269c1.38394,-0.03549 2.49287,-0.14194 3.32679,-0.31937c0.83391,-0.17743 1.47266,-0.47906 1.91623,-0.90489c0.44357,-0.42583 0.7452,-1.02909 0.90489,-1.80977c0.15969,-0.78069 0.23953,-1.79203 0.23953,-3.03403v-24.80451c0,-1.242 -0.0621,-2.24447 -0.1863,-3.00741c-0.1242,-0.76294 -0.3726,-1.3662 -0.7452,-1.80977c-0.3726,-0.44357 -0.91376,-0.7452 -1.62347,-0.90489c-0.70971,-0.15969 -1.63234,-0.27501 -2.76789,-0.34599v-2.02269h15.91534c4.79057,0 8.51657,0.85166 11.178,2.55497c2.66143,1.70331 3.99214,4.0986 3.99214,7.18586c0,2.34206 -0.73633,4.25829 -2.20899,5.74869c-1.47266,1.4904 -3.80584,2.71466 -6.99956,3.67277v0.21291c1.10006,0.10646 2.05817,0.23066 2.87434,0.3726c0.81617,0.14194 1.54363,0.3105 2.18237,0.50567c0.63874,0.19517 1.23313,0.4347 1.78316,0.71859c0.55003,0.28389 1.09119,0.60326 1.62347,0.95811c3.15823,2.2356 4.73734,5.03897 4.73734,8.41011c0,1.88074 -0.52341,3.62841 -1.57024,5.24301c-1.04683,1.6146 -2.51061,2.88321 -4.39136,3.80584c-0.60326,0.31937 -1.22426,0.57664 -1.863,0.77181c-0.63874,0.19517 -1.38394,0.35486 -2.2356,0.47906c-0.85166,0.1242 -1.83639,0.21291 -2.95419,0.26614c-1.1178,0.05323 -2.43964,0.07984 -3.96553,0.07984zM338.3553,345.42257c6.42291,0 9.63437,-2.75014 9.63437,-8.25043c0,-4.00989 -1.65009,-6.81326 -4.95026,-8.41011c-0.56777,-0.2484 -1.1178,-0.46131 -1.65009,-0.63874c-0.53229,-0.17743 -1.15329,-0.3105 -1.863,-0.39921c-0.70971,-0.08871 -1.5525,-0.15081 -2.52836,-0.1863c-0.97586,-0.03549 -2.1735,-0.05323 -3.59293,-0.05323h-2.39529v11.86997c0,2.16463 0.56777,3.71713 1.70331,4.6575c1.13554,0.94037 3.01629,1.41056 5.64223,1.41056zM333.99056,324.82312c1.10006,0 2.02269,-0.01774 2.76789,-0.05323c0.7452,-0.03549 1.38394,-0.09759 1.91623,-0.1863c0.53229,-0.08871 1.00247,-0.21291 1.41056,-0.3726c0.40809,-0.15969 0.82504,-0.38147 1.25087,-0.66536c1.13554,-0.70971 1.94284,-1.56137 2.4219,-2.55497c0.47906,-0.9936 0.71859,-2.28883 0.71859,-3.88569c0,-2.80337 -0.6831,-4.81719 -2.0493,-6.04144c-1.3662,-1.22426 -3.50421,-1.83639 -6.41404,-1.83639h-4.0986c-0.60326,0 -0.90489,0.30163 -0.90489,0.90489v14.69108z" data-paper-data="{&quot;glyphName&quot;:&quot;B&quot;,&quot;glyphIndex&quot;:4,&quot;firstGlyphOfWord&quot;:true,&quot;word&quot;:2}" fill="#000000"></path><path d="M387.99094,325.19572c1.91623,0 3.52196,-0.11533 4.81719,-0.34599c1.29523,-0.23066 2.32431,-0.59439 3.08726,-1.09119c0.76294,-0.4968 1.31297,-1.13554 1.65009,-1.91623c0.33711,-0.78069 0.50567,-1.70331 0.50567,-2.76789h1.863v14.5314h-1.863c0,-1.06457 -0.15081,-1.9872 -0.45244,-2.76789c-0.30163,-0.78069 -0.83391,-1.4283 -1.59686,-1.94284c-0.76294,-0.51454 -1.79203,-0.90489 -3.08726,-1.17103c-1.29523,-0.26614 -2.93644,-0.39921 -4.92364,-0.39921v12.02966c0,1.17103 0.14194,2.13801 0.42583,2.90096c0.28389,0.76294 0.77181,1.38394 1.46379,1.863c0.69197,0.47906 1.60573,0.81617 2.74127,1.01134c1.13554,0.19517 2.53723,0.29276 4.20506,0.29276c1.88074,0 3.4776,-0.13307 4.79057,-0.39921c1.31297,-0.26614 2.41303,-0.71859 3.30017,-1.35733c0.88714,-0.63874 1.59686,-1.48153 2.12914,-2.52836c0.53229,-1.04683 0.97586,-2.35093 1.33071,-3.9123h2.02269l-0.79843,10.48603h-33.05494v-2.02269c1.242,-0.03549 2.24447,-0.14194 3.00741,-0.31937c0.76294,-0.17743 1.35733,-0.47906 1.78316,-0.90489c0.42583,-0.42583 0.70971,-1.02909 0.85166,-1.80977c0.14194,-0.78069 0.21291,-1.79203 0.21291,-3.03403v-24.80451c0,-1.242 -0.0621,-2.24447 -0.1863,-3.00741c-0.1242,-0.76294 -0.3726,-1.3662 -0.7452,-1.80977c-0.3726,-0.44357 -0.91376,-0.7452 -1.62347,-0.90489c-0.70971,-0.15969 -1.63234,-0.27501 -2.76789,-0.34599v-2.02269h30.76611l0.47906,9.36823h-1.863c-0.21291,-1.41943 -0.5589,-2.58159 -1.03796,-3.48647c-0.47906,-0.90489 -1.13554,-1.62347 -1.96946,-2.15576c-0.83391,-0.53229 -1.88961,-0.90489 -3.1671,-1.1178c-1.27749,-0.21291 -2.82111,-0.31937 -4.63089,-0.31937h-6.76003c-0.60326,0 -0.90489,0.30163 -0.90489,0.90489z" data-paper-data="{&quot;glyphName&quot;:&quot;E&quot;,&quot;glyphIndex&quot;:5,&quot;word&quot;:2}" fill="#000000"></path><path d="M458.70509,338.18349l13.83943,-31.45808h11.9232v2.02269c-1.13554,0.03549 -2.0493,0.17743 -2.74127,0.42583c-0.69197,0.2484 -1.22426,0.66536 -1.59686,1.25087c-0.3726,0.58551 -0.621,1.39281 -0.7452,2.4219c-0.1242,1.02909 -0.1863,2.34206 -0.1863,3.93891v20.8656c0,1.77429 0.07097,3.17597 0.21291,4.20506c0.14194,1.02909 0.41696,1.82751 0.82504,2.39529c0.40809,0.56777 0.9936,0.94037 1.75654,1.1178c0.76294,0.17743 1.76541,0.28389 3.00741,0.31937v2.02269h-17.24606v-2.02269c1.242,-0.03549 2.24447,-0.15081 3.00741,-0.34599c0.76294,-0.19517 1.35733,-0.5589 1.78316,-1.09119c0.42583,-0.53229 0.70971,-1.28636 0.85166,-2.26221c0.14194,-0.97586 0.21291,-2.2977 0.21291,-3.96553v-24.69805h-0.53229l-15.54274,34.91794h-1.17103l-15.2766,-34.91794h-0.21291v24.32545c0,1.77429 0.07097,3.17597 0.21291,4.20506c0.14194,1.02909 0.41696,1.82751 0.82504,2.39529c0.40809,0.56777 0.9936,0.94037 1.75654,1.1178c0.76294,0.17743 1.76541,0.28389 3.00741,0.31937v2.02269h-14.85077v-2.02269c1.242,-0.03549 2.24447,-0.15081 3.00741,-0.34599c0.76294,-0.19517 1.35733,-0.5589 1.78316,-1.09119c0.42583,-0.53229 0.70971,-1.28636 0.85166,-2.26221c0.14194,-0.97586 0.21291,-2.2977 0.21291,-3.96553v-21.6108c0,-1.4904 -0.0621,-2.72353 -0.1863,-3.69939c-0.1242,-0.97586 -0.3726,-1.74767 -0.7452,-2.31544c-0.3726,-0.56777 -0.91376,-0.96699 -1.62347,-1.19764c-0.70971,-0.23066 -1.63234,-0.38147 -2.76789,-0.45244v-2.02269h12.72163l13.4136,31.45808z" data-paper-data="{&quot;glyphName&quot;:&quot;M&quot;,&quot;glyphIndex&quot;:6,&quot;lastGlyphOfWord&quot;:true,&quot;word&quot;:2}" fill="#000000"></path></g><g data-paper-data="{&quot;fillRule&quot;:&quot;evenodd&quot;,&quot;fillRuleOriginal&quot;:&quot;evenodd&quot;,&quot;isIcon&quot;:true,&quot;iconStyle&quot;:&quot;standalone&quot;,&quot;selectedEffects&quot;:{&quot;container&quot;:&quot;&quot;,&quot;transformation&quot;:&quot;&quot;,&quot;pattern&quot;:&quot;&quot;},&quot;bounds&quot;:{&quot;x&quot;:203.58145871617768,&quot;y&quot;:121.7563145554781,&quot;width&quot;:142.83708256764464,&quot;height&quot;:142.83708256764467},&quot;iconType&quot;:&quot;icon&quot;,&quot;isDetailed&quot;:false,&quot;source&quot;:&quot;noun&quot;,&quot;rawIconId&quot;:&quot;2417357&quot;,&quot;suitableAsStandaloneIcon&quot;:true}" fill="#D9A5A3" fill-rule="evenodd"><path d="M275,264.5934c-39.38041,0 -71.41854,-32.03813 -71.41854,-71.41854c0,-39.38041 32.03813,-71.41854 71.41854,-71.41854c39.38041,0 71.41854,32.03813 71.41854,71.41854c0,39.38041 -32.03813,71.41854 -71.41854,71.41854zM275,126.36396c-36.8393,0 -66.8109,29.9716 -66.8109,66.8109c0,36.8393 29.9716,66.8109 66.8109,66.8109c36.8393,0 66.8109,-29.9716 66.8109,-66.8109c0,-36.8393 -29.9716,-66.8109 -66.8109,-66.8109zM244.0055,158.54608c-0.59324,0 -1.18647,-0.22693 -1.63687,-0.68308c-0.89504,-0.9031 -0.88813,-2.36257 0.01613,-3.25761l1.68133,-1.66509l-1.68133,-1.66509c-0.90425,-0.89504 -0.91116,-2.35451 -0.01613,-3.25761c0.89619,-0.90655 2.35451,-0.91116 3.25761,-0.01613l1.71347,1.69688l1.71347,-1.69688c0.9031,-0.89619 2.36142,-0.89042 3.25761,0.01613c0.89504,0.9031 0.88813,2.36257 -0.01613,3.25761l-1.68144,1.66497l1.68144,1.6652c0.90425,0.89504 0.91116,2.35451 0.01613,3.25761c-0.4504,0.45501 -1.04363,0.68308 -1.63687,0.68308c-0.58632,0 -1.17265,-0.22117 -1.62074,-0.66696l-1.71393,-1.69734l-1.71301,1.69619c-0.44809,0.44579 -1.03442,0.66811 -1.62074,0.66811zM281.52443,218.04924c-0.68654,0 -1.34543,-0.30756 -1.78892,-0.85127c-0.10309,-0.12671 -0.87211,-1.07577 -2.02092,-2.54814c-4.04552,7.08622 -11.63143,16.50425 -11.95524,16.90558c-0.44003,0.54716 -1.10238,0.85702 -1.79122,0.85702c-0.14629,0 -0.29374,-0.01382 -0.44118,-0.04262c-0.51606,-0.10021 -12.71481,-2.4985 -20.16767,-5.28728c-13.84138,-5.17554 -22.26761,-11.70112 -25.04257,-19.39589c-3.74372,-10.38103 1.62881,-21.97272 11.97758,-25.84084v-0.00115c2.63212,-0.98143 5.63169,-1.31203 8.92386,-0.98028c2.83485,0.28798 5.49923,1.10353 7.82379,2.38561c1.88107,-5.05528 5.73617,-9.21518 10.67557,-11.42432c0.03214,-2.60666 0.44544,-5.00783 1.2398,-7.19749c1.9882,-5.47849 5.99685,-9.85345 11.28644,-12.3197c5.28958,-2.46625 11.21847,-2.72312 16.69351,-0.72686c6.12241,2.23471 10.91782,7.1361 13.09724,13.18824c2.5895,-1.46754 5.57986,-2.39943 8.7672,-2.71966c3.58245,-0.36055 6.85157,-0.00461 9.71638,1.05976c11.28298,4.1918 17.1393,16.76147 13.05462,28.01796c-3.03414,8.36058 -12.26556,15.45981 -27.44085,21.10418c-8.18894,3.0445 -21.60296,5.66625 -22.1697,5.77569c-0.14514,0.02765 -0.29259,0.04147 -0.43772,0.04147zM262.39059,170.38946c0.13097,-1.5029 0.43024,-2.90051 0.89792,-4.19008c1.56775,-4.32082 4.72975,-7.77195 8.90313,-9.71753c2.31765,-1.07934 4.78965,-1.62304 7.26856,-1.62304c1.9859,0 3.97755,0.34903 5.89779,1.04939c5.68353,2.07459 9.91796,7.06122 11.05029,13.01315c0.15205,0.79827 0.71304,1.45717 1.47675,1.73478c0.76487,0.27876 1.61729,0.13247 2.24623,-0.38243c0.24882,-0.20389 0.50108,-0.39856 0.75911,-0.58632c2.30843,-1.67949 5.20434,-2.73579 8.3744,-3.05372c2.83716,-0.28682 5.48195,-0.01152 7.64985,0.79367c8.91925,3.3129 13.5534,13.24008 10.32919,22.12708c-2.55148,7.03012 -10.86829,13.20667 -24.71657,18.35687c-6.36086,2.36602 -16.44585,4.54775 -20.08128,5.29764c-0.57193,-0.72202 -1.39197,-1.76772 -2.35405,-3.02435l1.99235,-4.28108c3.84393,-9.04366 4.71132,-16.63015 2.57567,-22.54868c-1.82924,-5.07072 -5.52227,-9.11508 -10.39715,-11.38895c-3.76295,-1.75321 -7.87632,-2.28654 -11.87218,-1.57639zM262.48551,175.07187c3.28975,-0.74379 6.71599,-0.38267 9.83168,1.07081c3.75523,1.74975 6.60046,4.86683 8.0104,8.77527c1.72786,4.7885 0.89273,11.24381 -2.45012,19.11137l-0.91611,1.96862c-2.30578,-3.16373 -4.76753,-6.74099 -6.50104,-9.79471c-0.78445,-1.38114 -1.53665,-2.78187 -2.20706,-4.10081l-2.22664,-4.74933c-1.94178,-4.54176 -3.12318,-8.64475 -3.5411,-12.28123zM258.08279,176.81402c-3.82377,2.25164 -6.58075,6.10571 -7.42384,10.56096c-0.15205,0.79942 -0.71419,1.46062 -1.47906,1.73708c-0.76371,0.27761 -1.61844,0.13132 -2.24853,-0.38589c-0.22232,-0.182 -0.44924,-0.3594 -0.67963,-0.52758c-2.06538,-1.51131 -4.65718,-2.46279 -7.4978,-2.74961c-2.54227,-0.25803 -4.9106,-0.01037 -6.84581,0.71188c-7.99657,2.98921 -12.14922,11.94417 -9.25676,19.96148c2.29576,6.36316 9.80623,11.96376 22.3229,16.64398c5.68699,2.12758 14.66614,4.09275 18.07004,4.80117c2.14025,-2.72197 7.72357,-9.97671 10.78535,-15.40337c0.28314,-0.50143 0.56156,-1.00574 0.83445,-1.5105c-2.73487,-3.66481 -5.99213,-8.26681 -8.21129,-12.17536c-0.81901,-1.44219 -1.60692,-2.90743 -2.34069,-4.35422l-2.29,-4.88641c-1.9192,-4.48739 -3.16546,-8.63335 -3.73934,-12.4236zM320.01672,186.63085c-0.61051,0 -1.19799,-0.2419 -1.63571,-0.66696c-0.4262,-0.4262 -0.66811,-1.02636 -0.66811,-1.63687c0,-0.60936 0.2419,-1.19684 0.67963,-1.62304c0.85242,-0.85242 2.38446,-0.86394 3.24839,0c0.4262,0.4262 0.67963,1.01368 0.67963,1.62304c0,0.61051 -0.25342,1.19799 -0.67963,1.63687c-0.4262,0.42505 -1.0252,0.66696 -1.62419,0.66696zM294.67466,203.55819c-0.95609,0 -1.84767,-0.60014 -2.17827,-1.55393c-0.41469,-1.2026 0.22347,-2.51463 1.42606,-2.92931c0.40893,-0.14053 0.80749,-0.28337 1.19223,-0.4262c8.63934,-3.21268 15.19602,-6.87922 19.49035,-10.89593c0.93075,-0.86854 2.38906,-0.81901 3.25646,0.10943c0.86969,0.92959 0.82016,2.38676 -0.10828,3.25646c-4.74242,4.43601 -11.81746,8.42278 -21.03045,11.84856c-0.41699,0.15551 -0.85011,0.30986 -1.2959,0.46307c-0.24882,0.0864 -0.50339,0.12786 -0.7522,0.12786zM233.56573,209.02517c-0.59899,0 -1.19799,-0.2419 -1.62419,-0.67963c-0.43772,-0.4262 -0.67963,-1.0252 -0.67963,-1.62419c0,-0.61051 0.2419,-1.19799 0.67963,-1.63571c0.86394,-0.85242 2.39598,-0.85242 3.24839,0c0.43772,0.43772 0.67963,1.0252 0.67963,1.63571c0,0.60014 -0.2419,1.19799 -0.67963,1.62419c-0.4262,0.43772 -1.0252,0.67963 -1.62419,0.67963zM250.67738,220.25861c-0.22117,0 -0.44464,-0.03225 -0.66696,-0.09906c-0.99065,-0.29949 -1.87877,-0.59554 -2.63903,-0.87891c-4.92212,-1.84306 -8.80521,-3.97755 -11.54101,-6.34473c-0.96184,-0.83398 -1.06667,-2.2877 -0.23384,-3.24954c0.83283,-0.96184 2.2877,-1.06782 3.24954,-0.23499c2.31995,2.00893 5.73192,3.86351 10.13913,5.51305c0.66581,0.24882 1.45947,0.5126 2.35681,0.7833c1.21757,0.36746 1.90757,1.65415 1.53896,2.87172c-0.29949,0.99525 -1.21412,1.63917 -2.2036,1.63917zM285.49507,239.01635c-0.59324,0 -1.18647,-0.22693 -1.63687,-0.68308c-0.89504,-0.9031 -0.88813,-2.36257 0.01613,-3.25761l1.68133,-1.66509l-1.68133,-1.66509c-0.90425,-0.89504 -0.91116,-2.35451 -0.01613,-3.25761c0.89504,-0.9054 2.35451,-0.91231 3.25761,-0.01613l1.71347,1.69688l1.71347,-1.69688c0.9031,-0.89734 2.36142,-0.88928 3.25761,0.01613c0.89504,0.9031 0.88813,2.36257 -0.01613,3.25761l-1.68133,1.66509l1.68133,1.66509c0.90425,0.89504 0.91116,2.35451 0.01613,3.25761c-0.4504,0.45616 -1.04363,0.68308 -1.63687,0.68308c-0.58632,0 -1.17265,-0.22117 -1.62074,-0.66696l-1.71347,-1.69677l-1.71347,1.69677c-0.44809,0.44579 -1.03442,0.66696 -1.62074,0.66696z" data-paper-data="{&quot;isPathIcon&quot;:true}" fill="#D9A5A3"></path></g></g></g><g class="watermark-group" style="opacity: 0.1;" stroke="#FFFFFF" stroke-width="2px" stroke-opacity="0.7"><path class="watermark-path" d="M129.52,370.3a11.88,11.88,0,0,1,2.58,5.58,12,12,0,0,1,.11,3,11.81,11.81,0,0,1-.64,2.93,12.34,12.34,0,0,1-1.41,2.72,11.65,11.65,0,0,1-2.13,2.32,12,12,0,0,1-2.64,1.69,13,13,0,0,1-2.91.9,12.47,12.47,0,0,1-3,.12,12.17,12.17,0,0,1-2.93-.64,11.8,11.8,0,0,1-2.72-1.38,12.19,12.19,0,0,1-4-4.79,11.85,11.85,0,0,1-.89-2.92,12.14,12.14,0,0,1-.13-3,11.54,11.54,0,0,1,.64-2.92,11.67,11.67,0,0,1,3.5-5,11.44,11.44,0,0,1,2.67-1.69,11.64,11.64,0,0,1,2.92-.91,10.71,10.71,0,0,1,3-.12,11.68,11.68,0,0,1,5.66,2,11.7,11.7,0,0,1,2.34,2.12m-1.4,8.76a13,13,0,0,1-1.22,2.32,9.68,9.68,0,0,1-1.81,2,7.44,7.44,0,0,1-2.38,1.37,6.17,6.17,0,0,1-5.11-.46,8.73,8.73,0,0,1-3.85-4.58,6.69,6.69,0,0,1-.34-2.66,6.09,6.09,0,0,1,.77-2.47,7.15,7.15,0,0,1,1.75-2.11,9.58,9.58,0,0,1,1.09-.81,8.23,8.23,0,0,1,1.12-.63,8.14,8.14,0,0,1,1.19-.46,12.71,12.71,0,0,1,1.32-.37l2,2.38a12.83,12.83,0,0,0-1.56.17,7.86,7.86,0,0,0-1.23.32,4.5,4.5,0,0,0-1,.49,6.41,6.41,0,0,0-.93.67,4.49,4.49,0,0,0-1.15,1.39,3.87,3.87,0,0,0-.45,1.58,4.12,4.12,0,0,0,.26,1.63,6.11,6.11,0,0,0,2.36,2.82,4.43,4.43,0,0,0,1.57.53,3.91,3.91,0,0,0,1.62-.17,4.71,4.71,0,0,0,1.57-.89,10.5,10.5,0,0,0,.83-.79,5.71,5.71,0,0,0,.65-.93,10.13,10.13,0,0,0,.54-1.14,12.24,12.24,0,0,0,.44-1.49l2,2.33m-14.46,4.55a8.86,8.86,0,0,0,2.78,2.22,9,9,0,0,0,3.29.94,9.15,9.15,0,0,0,3.39-.37,8.68,8.68,0,0,0,3.11-1.69,8.8,8.8,0,0,0,2.22-2.78,9.15,9.15,0,0,0,1-3.29,8.95,8.95,0,0,0-4.83-8.76,9,9,0,0,0-6.73-.57,9,9,0,0,0-5.33,4.47,8.94,8.94,0,0,0-.57,6.71,8.76,8.76,0,0,0,1.7,3.12" stroke="#FFFFFF" stroke-width="2px" stroke-opacity="0.7"></path><path class="watermark-path" d="M147,349c-.48.12-1.09.31-1.82.57a24.37,24.37,0,0,0-2.4,1A28.35,28.35,0,0,0,140,352a20.72,20.72,0,0,0-2.71,1.94c-.7.59-1.28,1.11-1.74,1.57a15.07,15.07,0,0,0-1.1,1.22,4.09,4.09,0,0,0-.59.92,2.32,2.32,0,0,0-.22.64,1.16,1.16,0,0,0,0,.47,1.83,1.83,0,0,0,.18.29,1.15,1.15,0,0,0,1,.37,5.54,5.54,0,0,0,1.51-.38q.87-.35,1.95-.9l2.26-1.18q1.2-.65,2.49-1.29c.87-.44,1.73-.83,2.59-1.17a18.94,18.94,0,0,1,2.6-.81,9.27,9.27,0,0,1,2.46-.29,6.25,6.25,0,0,1,2.24.49,5.12,5.12,0,0,1,1.89,1.47,6.35,6.35,0,0,1,1.41,2.61,6,6,0,0,1,.09,2.6,8.3,8.3,0,0,1-.9,2.52,17.79,17.79,0,0,1-1.62,2.37,23.92,23.92,0,0,1-2,2.15c-.72.67-1.41,1.29-2.09,1.87a33.79,33.79,0,0,1-5.33,3.7,32.29,32.29,0,0,1-4.91,2.28l-3.61-4.3a21.38,21.38,0,0,0,5.39-1.87,27.2,27.2,0,0,0,5.4-3.56,21.59,21.59,0,0,0,2.38-2.27,8.67,8.67,0,0,0,1.18-1.7,2.32,2.32,0,0,0,.27-1.19,1.34,1.34,0,0,0-.28-.74,1.21,1.21,0,0,0-1-.42,4.32,4.32,0,0,0-1.55.34,15.77,15.77,0,0,0-2,.88c-.72.37-1.48.77-2.27,1.21l-2.45,1.3c-.85.45-1.7.85-2.56,1.21a22.37,22.37,0,0,1-2.54.86,10,10,0,0,1-2.43.32,5.76,5.76,0,0,1-2.2-.45,5,5,0,0,1-1.89-1.45,6.12,6.12,0,0,1-1.31-2.41,6,6,0,0,1-.1-2.41,8.28,8.28,0,0,1,.81-2.38,14.06,14.06,0,0,1,1.49-2.24,22.37,22.37,0,0,1,1.85-2.05q1-1,2-1.77c.7-.59,1.44-1.15,2.23-1.7s1.62-1.06,2.44-1.53,1.63-.91,2.43-1.3,1.58-.75,2.3-1L147,349" stroke="#FFFFFF" stroke-width="2px" stroke-opacity="0.7"></path><path class="watermark-path" d="M186.76,337.57l-10.6-12.63,3.92,18.24-4.66,3.91-17.27-7,10.6,12.63-4.86,4.07-15.09-18,6.59-5.54,18.69,7.52-4.15-19.71,6.57-5.52,15.09,18-4.83,4.05" stroke="#FFFFFF" stroke-width="2px" stroke-opacity="0.7"></path><path class="watermark-path" d="M208.84,313.24l-10,8.42,1.16,4.82L194.56,331l-5.68-25.89,5.42-4.55,24.51,10.09-5.42,4.55-4.55-2m-11.23,3.45,6.57-5.52-8.83-3.87,2.26,9.39" stroke="#FFFFFF" stroke-width="2px" stroke-opacity="0.7"></path><path class="watermark-path" d="M227.49,281.38c-.48.12-1.09.31-1.82.57a24.37,24.37,0,0,0-2.4,1,26.11,26.11,0,0,0-2.7,1.47,20.72,20.72,0,0,0-2.71,1.94c-.7.59-1.28,1.11-1.74,1.57a13.39,13.39,0,0,0-1.1,1.22,4.29,4.29,0,0,0-.59.91,2.48,2.48,0,0,0-.22.65,1.16,1.16,0,0,0,0,.47,1.83,1.83,0,0,0,.18.29,1.15,1.15,0,0,0,1,.37,5.54,5.54,0,0,0,1.51-.38q.87-.34,2-.9l2.26-1.18q1.2-.64,2.49-1.29c.87-.44,1.73-.83,2.59-1.17a18.94,18.94,0,0,1,2.6-.81,9.27,9.27,0,0,1,2.46-.29,6.08,6.08,0,0,1,2.24.49,5.09,5.09,0,0,1,1.89,1.46,6.47,6.47,0,0,1,1.41,2.61,6.07,6.07,0,0,1,.09,2.61,8.3,8.3,0,0,1-.9,2.52,16.32,16.32,0,0,1-1.63,2.36,21.41,21.41,0,0,1-2,2.16c-.72.67-1.41,1.29-2.1,1.86a33.36,33.36,0,0,1-5.32,3.71,31.92,31.92,0,0,1-4.92,2.28l-3.6-4.3a21.38,21.38,0,0,0,5.39-1.87,27.2,27.2,0,0,0,5.4-3.56,21.59,21.59,0,0,0,2.38-2.27,8.67,8.67,0,0,0,1.18-1.7A2.32,2.32,0,0,0,231,293a1.34,1.34,0,0,0-.28-.74,1.21,1.21,0,0,0-1-.42,4.32,4.32,0,0,0-1.55.34,16.54,16.54,0,0,0-2,.88c-.71.37-1.47.77-2.26,1.21l-2.46,1.3c-.84.44-1.7.85-2.55,1.21a24.53,24.53,0,0,1-2.54.86A10,10,0,0,1,214,298a5.76,5.76,0,0,1-2.2-.45,5,5,0,0,1-1.89-1.45,6.12,6.12,0,0,1-1.31-2.41,5.78,5.78,0,0,1-.1-2.41,8,8,0,0,1,.81-2.38,14.61,14.61,0,0,1,1.49-2.25,22.26,22.26,0,0,1,1.85-2q1-1,2-1.77c.7-.59,1.44-1.15,2.23-1.7s1.62-1.06,2.44-1.53,1.63-.91,2.43-1.31,1.58-.74,2.3-1l3.5,4.16" stroke="#FFFFFF" stroke-width="2px" stroke-opacity="0.7"></path><path class="watermark-path" d="M261.64,274.74l-6.29-7.5L243,277.61l6.3,7.5-4.86,4.07-15.09-18,4.85-4.08,5.49,6.55L252,263.3l-5.49-6.55,4.86-4.07,15.09,18-4.86,4.08" stroke="#FFFFFF" stroke-width="2px" stroke-opacity="0.7"></path><path class="watermark-path" d="M272.18,265.9l-15.09-18,4.86-4.08,15.09,18-4.86,4.08" stroke="#FFFFFF" stroke-width="2px" stroke-opacity="0.7"></path><path class="watermark-path" d="M299.65,242.85l-22.51-2.18L287.51,253l-4.85,4.08-15.1-18,5.28-4.43,22.56,2.22L285,224.5l4.83-4.06,15.09,18-5.26,4.42" stroke="#FFFFFF" stroke-width="2px" stroke-opacity="0.7"></path><path class="watermark-path" d="M306.68,205.52a31.88,31.88,0,0,1,5.29-3.66,34.48,34.48,0,0,1,5.14-2.35l3.69,4.39a20.77,20.77,0,0,0-2.37.61,20.47,20.47,0,0,0-2.61,1,25.12,25.12,0,0,0-2.76,1.49,23.9,23.9,0,0,0-2.8,2,20.42,20.42,0,0,0-2.8,2.77,12.77,12.77,0,0,0-1.64,2.52,7,7,0,0,0-.68,2.24,6,6,0,0,0,.66,3.64,8.16,8.16,0,0,0,.94,1.38,9.12,9.12,0,0,0,1.08,1.07,6.39,6.39,0,0,0,1.47.91,6.73,6.73,0,0,0,1.88.48,6.54,6.54,0,0,0,2.28-.18,11.67,11.67,0,0,0,2.74-1.07,19.38,19.38,0,0,0,3.18-2.22c.57-.48,1.06-.92,1.46-1.31a14.57,14.57,0,0,0,1-1.13,11.46,11.46,0,0,0,.81-1.05l.74-1.09-1.82-2.17-5.45,4.57-3.31-3.94,10.31-8.65,7.71,9.19a29,29,0,0,1-1.67,2.43q-1,1.26-2.1,2.52c-.74.84-1.5,1.65-2.3,2.44s-1.58,1.5-2.33,2.14a31,31,0,0,1-3.59,2.61,22.55,22.55,0,0,1-3.64,1.83,15.64,15.64,0,0,1-3.63.89,10.72,10.72,0,0,1-3.49-.15,10.45,10.45,0,0,1-3.28-1.33,12.54,12.54,0,0,1-3-2.67,12,12,0,0,1-2.08-3.44,10.45,10.45,0,0,1-.71-3.5,11.14,11.14,0,0,1,.51-3.51,15.72,15.72,0,0,1,1.56-3.43,21.62,21.62,0,0,1,2.42-3.28,30.3,30.3,0,0,1,3.15-3" stroke="#FFFFFF" stroke-width="2px" stroke-opacity="0.7"></path><path class="watermark-path" d="M336.91,211.59l-15.1-18,4.86-4.08,11.79,14,13.13-11,3.31,3.94-18,15.1" stroke="#FFFFFF" stroke-width="2px" stroke-opacity="0.7"></path><path class="watermark-path" d="M374.54,164.71a12.28,12.28,0,0,1,2.59,4.81,10.44,10.44,0,0,1,0,5,14.62,14.62,0,0,1-2.33,5,25.55,25.55,0,0,1-4.56,4.85,26.07,26.07,0,0,1-5.6,3.67,14.79,14.79,0,0,1-5.38,1.43,10.43,10.43,0,0,1-4.94-.89,13.24,13.24,0,0,1-6.87-8.18,10.48,10.48,0,0,1,0-5,14.51,14.51,0,0,1,2.36-5,25.23,25.23,0,0,1,4.57-4.89,25,25,0,0,1,5.59-3.64,14.45,14.45,0,0,1,5.35-1.43,10.31,10.31,0,0,1,4.93.92,12.22,12.22,0,0,1,4.28,3.38m-4.91,4.11a8.36,8.36,0,0,0-2-1.72,5.5,5.5,0,0,0-2.65-.85,7.72,7.72,0,0,0-3.32.57,14.49,14.49,0,0,0-4,2.52,16.72,16.72,0,0,0-2.38,2.4,10.15,10.15,0,0,0-1.39,2.24,6.71,6.71,0,0,0-.56,2.1,5.69,5.69,0,0,0,.1,1.9,6.21,6.21,0,0,0,.61,1.69,9.85,9.85,0,0,0,1,1.44,10.48,10.48,0,0,0,1.26,1.23,6.67,6.67,0,0,0,1.57.92,6.1,6.1,0,0,0,1.85.41,6.8,6.8,0,0,0,2.15-.2,11.06,11.06,0,0,0,2.45-1,17.67,17.67,0,0,0,2.77-1.94,14.39,14.39,0,0,0,3.18-3.52,7.74,7.74,0,0,0,1.14-3.17,5.54,5.54,0,0,0-.37-2.74,8.52,8.52,0,0,0-1.36-2.3" stroke="#FFFFFF" stroke-width="2px" stroke-opacity="0.7"></path><path class="watermark-path" d="M382.66,141.76A32.3,32.3,0,0,1,388,138.1a34.12,34.12,0,0,1,5.15-2.35l3.69,4.4a19.62,19.62,0,0,0-2.37.6,22.08,22.08,0,0,0-2.61,1,26,26,0,0,0-2.77,1.49,23.9,23.9,0,0,0-2.8,2,21,21,0,0,0-2.8,2.78,13.19,13.19,0,0,0-1.64,2.51,7.29,7.29,0,0,0-.68,2.24,6.36,6.36,0,0,0,.06,2,5.8,5.8,0,0,0,.61,1.68,8.12,8.12,0,0,0,.93,1.38,9.16,9.16,0,0,0,1.08,1.08,6.56,6.56,0,0,0,1.48.9,6,6,0,0,0,1.87.48,6.76,6.76,0,0,0,2.28-.17,12,12,0,0,0,2.74-1.08,18.57,18.57,0,0,0,3.18-2.22c.58-.48,1.06-.92,1.46-1.31s.75-.77,1.05-1.12.57-.72.81-1.06l.73-1.09-1.82-2.17-5.45,4.57-3.3-3.94,10.3-8.65,7.71,9.19a29,29,0,0,1-1.67,2.43q-1,1.26-2.1,2.52c-.73.84-1.5,1.66-2.3,2.44s-1.57,1.5-2.33,2.14a31,31,0,0,1-3.59,2.61,22.15,22.15,0,0,1-3.64,1.83,15.56,15.56,0,0,1-3.62.89,11,11,0,0,1-3.49-.14,10.84,10.84,0,0,1-3.28-1.33,12.82,12.82,0,0,1-3-2.68,12.12,12.12,0,0,1-2.08-3.43A10.71,10.71,0,0,1,375,155a11.18,11.18,0,0,1,.51-3.51,15.51,15.51,0,0,1,1.57-3.43,21.44,21.44,0,0,1,2.42-3.28,30.19,30.19,0,0,1,3.14-3" stroke="#FFFFFF" stroke-width="2px" stroke-opacity="0.7"></path><path class="watermark-path" d="M428.63,119.31a12.26,12.26,0,0,1,2.59,4.82,10.44,10.44,0,0,1,0,5,14.53,14.53,0,0,1-2.34,5,25.29,25.29,0,0,1-4.56,4.86,26,26,0,0,1-5.59,3.67,14.84,14.84,0,0,1-5.38,1.43,10.61,10.61,0,0,1-4.95-.89,12.15,12.15,0,0,1-4.3-3.37,12,12,0,0,1-2.56-4.81,10.48,10.48,0,0,1,0-5,14.39,14.39,0,0,1,2.35-5,27.89,27.89,0,0,1,10.16-8.53,14.49,14.49,0,0,1,5.36-1.43,10.27,10.27,0,0,1,4.92.92,12.21,12.21,0,0,1,4.28,3.37m-4.91,4.12a8.17,8.17,0,0,0-2-1.72,5.58,5.58,0,0,0-2.65-.86,7.86,7.86,0,0,0-3.31.58,14.49,14.49,0,0,0-4,2.52,16.21,16.21,0,0,0-2.38,2.4,9.85,9.85,0,0,0-1.4,2.24,7,7,0,0,0-.56,2.1,6,6,0,0,0,.1,1.9,6.23,6.23,0,0,0,.62,1.69,8.49,8.49,0,0,0,1,1.44,9.18,9.18,0,0,0,1.26,1.23,6.67,6.67,0,0,0,1.57.92,6,6,0,0,0,1.84.41,6.86,6.86,0,0,0,2.16-.2,11.26,11.26,0,0,0,2.45-1,17.62,17.62,0,0,0,2.76-1.94,14.67,14.67,0,0,0,3.19-3.52,7.71,7.71,0,0,0,1.13-3.17,5.53,5.53,0,0,0-.36-2.74,8.55,8.55,0,0,0-1.37-2.3" stroke="#FFFFFF" stroke-width="2px" stroke-opacity="0.7"></path></g></svg>