<svg width="420" height="43" viewBox="0 0 420 43" fill="none" xmlns="http://www.w3.org/2000/svg">
<path d="M33.481 0.969971H34.971L35.45 13.21H33.481C32.7 10.09 31.192 7.64 28.956 5.87C26.721 4.09 24.024 3.19995 20.8656 3.19995C18.701 3.19995 16.767 3.62998 15.0637 4.47998C13.3604 5.32998 11.9232 6.56002 10.7522 8.15002C9.5812 9.75002 8.6851 11.7 8.0641 14.01C7.4431 16.32 7.1326 18.92 7.1326 21.83C7.1326 27.55 8.3214 31.94 10.699 35.01C13.0765 38.08 16.5186 39.61 21.025 39.61C27.874 39.61 32.274 35.98 34.226 28.7H36.408V41.96H34.545L33.321 37.75C29.595 40.91 25.088 42.49 19.801 42.49C16.7847 42.49 14.0612 42.01 11.6304 41.05C9.1997 40.09 7.1238 38.73 5.4027 36.98C3.6816 35.22 2.3509 33.0801 1.4106 30.5601C0.470199 28.0401 0 25.24 0 22.15C0 18.92 0.496802 15.9799 1.4904 13.3199C2.484 10.6599 3.8768 8.36995 5.6688 6.44995C7.4609 4.53995 9.6077 3.05001 12.1095 2.01001C14.6112 0.96001 17.3703 0.439941 20.3865 0.439941C22.516 0.439941 24.521 0.739966 26.401 1.33997C28.282 1.93997 30.323 2.92002 32.523 4.27002L33.481 0.969971Z" fill="white"/>
<path d="M82.105 27.1H67.893C67.29 28.56 66.775 29.85 66.349 30.96C65.924 32.08 65.578 33.05 65.312 33.86C65.045 34.68 64.859 35.3699 64.753 35.9399C64.646 36.5099 64.593 36.9699 64.593 37.3199C64.593 38.3199 64.912 39 65.551 39.37C66.19 39.75 67.254 39.9301 68.745 39.9301V41.96H55.81V39.9301C56.626 39.8301 57.327 39.68 57.913 39.51C58.498 39.33 59.013 39.08 59.456 38.76C59.9 38.44 60.29 38.03 60.627 37.51C60.964 37 61.293 36.37 61.612 35.62L75.452 0.969971H77.74L89.823 30.99C90.639 32.98 91.349 34.57 91.952 35.75C92.556 36.94 93.141 37.8399 93.709 38.4399C94.277 39.0499 94.889 39.44 95.545 39.61C96.202 39.79 96.991 39.88 97.914 39.88V41.96H80.561V39.88C82.442 39.88 83.737 39.7 84.447 39.35C85.157 38.99 85.512 38.41 85.512 37.59C85.512 37.24 85.494 36.91 85.459 36.61C85.423 36.3 85.361 35.98 85.272 35.62C85.183 35.27 85.059 34.87 84.9 34.42C84.74 33.98 84.536 33.46 84.287 32.85L82.105 27.1ZM68.958 24.4399H81.094L75.185 8.73999L68.958 24.4399Z" fill="white"/>
<path d="M116.943 29.45H118.913C119.161 31.04 119.631 32.48 120.323 33.76C121.015 35.04 121.885 36.12 122.931 37C123.978 37.89 125.185 38.58 126.551 39.05C127.917 39.53 129.399 39.77 130.995 39.77C133.621 39.77 135.697 39.15 137.223 37.91C138.749 36.67 139.512 34.98 139.512 32.85C139.512 31.97 139.361 31.15 139.06 30.4C138.758 29.66 138.252 28.94 137.543 28.25C136.833 27.56 135.884 26.87 134.695 26.2C133.506 25.53 132.007 24.8 130.197 24.02C127.997 23.06 126.152 22.14 124.661 21.25C123.171 20.36 121.982 19.44 121.095 18.48C120.208 17.52 119.578 16.5 119.205 15.42C118.833 14.34 118.646 13.11 118.646 11.72C118.646 10.09 118.939 8.57995 119.525 7.19995C120.11 5.80995 120.935 4.61998 122 3.59998C123.064 2.58998 124.324 1.81001 125.779 1.26001C127.234 0.71001 128.831 0.439941 130.57 0.439941C132.131 0.439941 133.586 0.690054 134.934 1.18005C136.283 1.68005 137.649 2.47996 139.033 3.57996L140.417 1.18005H141.641L142.227 11.77H140.257C139.406 8.86002 138.172 6.70003 136.558 5.28003C134.943 3.86003 133 3.15002 130.729 3.15002C128.565 3.15002 126.844 3.68 125.566 4.75C124.289 5.81 123.65 7.25006 123.65 9.06006C123.65 9.91006 123.792 10.68 124.076 11.38C124.36 12.07 124.821 12.72 125.46 13.34C126.098 13.97 126.932 14.59 127.961 15.21C128.991 15.83 130.268 16.48 131.794 17.15C134.42 18.32 136.602 19.41 138.341 20.42C140.08 21.44 141.464 22.45 142.493 23.46C143.522 24.47 144.249 25.53 144.675 26.65C145.101 27.77 145.314 29.02 145.314 30.4C145.314 32.18 144.959 33.81 144.249 35.3C143.54 36.79 142.546 38.07 141.269 39.13C139.991 40.2 138.465 41.02 136.691 41.61C134.917 42.19 132.965 42.49 130.836 42.49C128.813 42.49 126.994 42.2 125.38 41.64C123.765 41.07 122.124 40.11 120.456 38.76L118.966 41.37H117.742L116.943 29.45Z" fill="white"/>
<path d="M178.662 19.4399C180.578 19.4399 182.184 19.32 183.479 19.09C184.774 18.86 185.803 18.5 186.566 18C187.329 17.51 187.879 16.87 188.216 16.09C188.553 15.31 188.722 14.3799 188.722 13.3199H190.585V27.85H188.722C188.722 26.78 188.571 25.86 188.269 25.08C187.968 24.3 187.436 23.65 186.673 23.14C185.91 22.62 184.881 22.23 183.585 21.97C182.29 21.7 180.649 21.5699 178.662 21.5699V33.6C178.662 34.77 178.804 35.74 179.088 36.5C179.371 37.26 179.859 37.88 180.551 38.36C181.243 38.84 182.157 39.18 183.293 39.37C184.428 39.57 185.83 39.67 187.498 39.67C189.378 39.67 190.975 39.53 192.288 39.27C193.601 39 194.701 38.55 195.588 37.91C196.476 37.27 197.185 36.43 197.718 35.38C198.25 34.33 198.693 33.03 199.048 31.47H201.071L200.272 41.96H167.218V39.9301C168.46 39.9001 169.462 39.79 170.225 39.61C170.988 39.44 171.582 39.13 172.008 38.71C172.434 38.28 172.718 37.68 172.86 36.9C173.002 36.12 173.073 35.11 173.073 33.86V9.06006C173.073 7.82006 173.011 6.82005 172.886 6.05005C172.762 5.29005 172.514 4.68999 172.141 4.23999C171.769 3.79999 171.227 3.49997 170.518 3.33997C169.808 3.17997 168.885 3.05999 167.75 2.98999V0.969971H198.516L198.995 10.34H197.132C196.919 8.91997 196.573 7.75998 196.094 6.84998C195.615 5.94998 194.958 5.22995 194.125 4.69995C193.291 4.15995 192.235 3.78996 190.957 3.57996C189.68 3.35996 188.136 3.26001 186.327 3.26001H179.567C178.963 3.26001 178.662 3.56003 178.662 4.16003V19.4399Z" fill="white"/>
<path d="M254.033 41.96V39.9301C255.417 39.9001 256.526 39.79 257.36 39.61C258.194 39.44 258.833 39.13 259.276 38.71C259.72 38.28 260.022 37.68 260.181 36.9C260.341 36.12 260.421 35.11 260.421 33.86V9.06006C260.421 7.82006 260.359 6.82005 260.234 6.05005C260.11 5.29005 259.862 4.68999 259.489 4.23999C259.117 3.79999 258.576 3.49997 257.866 3.33997C257.156 3.17997 256.233 3.05999 255.098 2.98999V0.969971H271.013C275.804 0.969971 279.53 1.82002 282.191 3.52002C284.853 5.23002 286.183 7.61996 286.183 10.71C286.183 13.05 285.447 14.97 283.974 16.46C282.502 17.95 280.169 19.17 276.975 20.13V20.34C278.075 20.45 279.033 20.57 279.849 20.72C280.665 20.86 281.393 21.03 282.032 21.22C282.67 21.42 283.265 21.6599 283.815 21.9399C284.365 22.2299 284.906 22.54 285.438 22.9C288.596 25.13 290.176 27.9401 290.176 31.3101C290.176 33.1901 289.652 34.94 288.605 36.55C287.558 38.17 286.095 39.44 284.214 40.36C283.611 40.68 282.99 40.93 282.351 41.13C281.712 41.33 280.967 41.48 280.115 41.61C279.264 41.73 278.279 41.82 277.161 41.88C276.043 41.93 274.721 41.96 273.196 41.96H254.033ZM273.355 39.67C279.778 39.67 282.99 36.92 282.99 31.42C282.99 27.41 281.34 24.6 278.039 23.01C277.472 22.76 276.922 22.54 276.389 22.37C275.857 22.19 275.236 22.06 274.526 21.97C273.817 21.88 272.974 21.82 271.998 21.78C271.022 21.75 269.824 21.73 268.405 21.73H266.01V33.6C266.01 35.76 266.578 37.32 267.713 38.26C268.849 39.2 270.729 39.67 273.355 39.67ZM268.991 19.0699C270.091 19.0699 271.013 19.05 271.758 19.01C272.504 18.98 273.142 18.92 273.675 18.83C274.207 18.74 274.677 18.61 275.085 18.45C275.493 18.29 275.91 18.07 276.336 17.79C277.472 17.08 278.279 16.23 278.758 15.23C279.237 14.24 279.477 12.95 279.477 11.35C279.477 8.54998 278.794 6.53006 277.427 5.31006C276.061 4.08006 273.923 3.46997 271.013 3.46997H266.915C266.311 3.46997 266.01 3.77 266.01 4.38V19.0699H268.991Z" fill="white"/>
<path d="M322.991 19.4399C324.907 19.4399 326.513 19.32 327.808 19.09C329.103 18.86 330.132 18.5 330.895 18C331.658 17.51 332.208 16.87 332.546 16.09C332.883 15.31 333.051 14.3799 333.051 13.3199H334.914V27.85H333.051C333.051 26.78 332.9 25.86 332.599 25.08C332.297 24.3 331.765 23.65 331.002 23.14C330.239 22.62 329.21 22.23 327.915 21.97C326.619 21.7 324.978 21.5699 322.991 21.5699V33.6C322.991 34.77 323.133 35.74 323.417 36.5C323.701 37.26 324.189 37.88 324.881 38.36C325.573 38.84 326.486 39.18 327.622 39.37C328.757 39.57 330.159 39.67 331.827 39.67C333.708 39.67 335.305 39.53 336.618 39.27C337.93 39 339.031 38.55 339.918 37.91C340.805 37.27 341.515 36.43 342.047 35.38C342.579 34.33 343.023 33.03 343.378 31.47H345.4L344.602 41.96H311.547V39.9301C312.789 39.9001 313.791 39.79 314.554 39.61C315.317 39.44 315.912 39.13 316.337 38.71C316.763 38.28 317.047 37.68 317.189 36.9C317.331 36.12 317.402 35.11 317.402 33.86V9.06006C317.402 7.82006 317.34 6.82005 317.216 6.05005C317.091 5.29005 316.843 4.68999 316.471 4.23999C316.098 3.79999 315.557 3.49997 314.847 3.33997C314.137 3.17997 313.215 3.05999 312.079 2.98999V0.969971H342.845L343.324 10.34H341.461C341.248 8.91997 340.902 7.75998 340.423 6.84998C339.944 5.94998 339.288 5.22995 338.454 4.69995C337.62 4.15995 336.564 3.78996 335.287 3.57996C334.009 3.35996 332.466 3.26001 330.656 3.26001H323.896C323.293 3.26001 322.991 3.56003 322.991 4.16003V19.4399Z" fill="white"/>
<path d="M393.705 32.4301L407.544 0.969971H419.468V2.98999C418.332 3.02999 417.418 3.17004 416.726 3.42004C416.034 3.67004 415.502 4.08004 415.13 4.67004C414.757 5.25004 414.509 6.05997 414.384 7.08997C414.26 8.11997 414.198 9.43003 414.198 11.03V31.89C414.198 33.67 414.269 35.07 414.411 36.1C414.553 37.13 414.828 37.93 415.236 38.5C415.644 39.06 416.23 39.44 416.993 39.61C417.755 39.79 418.758 39.9001 420 39.9301V41.96H402.754V39.9301C403.996 39.9001 404.998 39.78 405.761 39.59C406.524 39.39 407.119 39.03 407.544 38.5C407.97 37.96 408.254 37.21 408.396 36.23C408.538 35.26 408.609 33.94 408.609 32.27V7.56995H408.077L392.534 42.49H391.363L376.086 7.56995H375.873V31.89C375.873 33.67 375.944 35.07 376.086 36.1C376.228 37.13 376.503 37.93 376.911 38.5C377.319 39.06 377.905 39.44 378.668 39.61C379.431 39.79 380.433 39.9001 381.675 39.9301V41.96H366.825V39.9301C368.067 39.9001 369.069 39.78 369.832 39.59C370.595 39.39 371.189 39.03 371.615 38.5C372.041 37.96 372.325 37.21 372.467 36.23C372.609 35.26 372.68 33.94 372.68 32.27V10.66C372.68 9.17003 372.618 7.92996 372.493 6.95996C372.369 5.97996 372.121 5.21001 371.748 4.64001C371.376 4.07001 370.834 3.66994 370.125 3.43994C369.415 3.20994 368.492 3.05999 367.357 2.98999V0.969971H380.079L393.492 32.4301H393.705Z" fill="white"/>
</svg>