<svg width="144" height="143" viewBox="0 0 144 143" fill="none" xmlns="http://www.w3.org/2000/svg">
<path fill-rule="evenodd" clip-rule="evenodd" d="M72 142.84C32.62 142.84 0.580994 110.8 0.580994 71.42C0.580994 32.04 32.62 0 72 0C111.38 0 143.419 32.04 143.419 71.42C143.419 110.8 111.38 142.84 72 142.84ZM72 4.60999C35.161 4.60999 5.189 34.58 5.189 71.42C5.189 108.26 35.161 138.23 72 138.23C108.839 138.23 138.811 108.26 138.811 71.42C138.811 34.58 108.839 4.60999 72 4.60999ZM41.005 36.79C40.412 36.79 39.819 36.56 39.369 36.11C38.474 35.2 38.48 33.74 39.385 32.85L41.066 31.1801L39.385 29.52C38.48 28.62 38.474 27.16 39.369 26.26C40.265 25.35 41.723 25.35 42.626 26.25L44.34 27.9399L46.053 26.25C46.956 25.35 48.415 25.35 49.311 26.26C50.206 27.16 50.199 28.62 49.295 29.52L47.613 31.1801L49.295 32.85C50.199 33.74 50.206 35.2 49.311 36.11C48.86 36.56 48.267 36.79 47.674 36.79C47.088 36.79 46.501 36.57 46.053 36.12L44.339 34.4301L42.626 36.12C42.178 36.57 41.592 36.79 41.005 36.79ZM78.524 96.29C77.838 96.29 77.179 95.9899 76.735 95.4399C76.632 95.3099 75.863 94.37 74.715 92.89C70.669 99.98 63.083 109.4 62.759 109.8C62.319 110.35 61.657 110.66 60.968 110.66C60.822 110.66 60.674 110.64 60.527 110.61C60.011 110.51 47.812 108.11 40.359 105.33C26.518 100.15 18.092 93.6301 15.317 85.9301C11.573 75.5501 16.945 63.96 27.294 60.09C29.926 59.11 32.926 58.78 36.218 59.11C39.053 59.4 41.717 60.21 44.042 61.49C45.923 56.44 49.778 52.2799 54.717 50.0699C54.75 47.4599 55.163 45.06 55.957 42.87C57.945 37.39 61.954 33.02 67.244 30.55C72.533 28.09 78.462 27.83 83.937 29.83C90.06 32.06 94.855 36.96 97.034 43.01C99.624 41.55 102.614 40.61 105.802 40.29C109.384 39.93 112.653 40.29 115.518 41.35C126.801 45.55 132.657 58.12 128.573 69.37C125.539 77.73 116.307 84.83 101.132 90.48C92.943 93.52 79.529 96.14 78.962 96.25C78.817 96.28 78.67 96.29 78.524 96.29ZM59.391 48.63C59.522 47.13 59.821 45.7299 60.288 44.4399C61.856 40.1199 65.018 36.67 69.192 34.73C71.509 33.65 73.981 33.1 76.46 33.1C78.446 33.1 80.438 33.45 82.358 34.15C88.041 36.23 92.276 41.21 93.408 47.17C93.56 47.96 94.121 48.62 94.885 48.9C95.65 49.18 96.502 49.03 97.131 48.52C97.38 48.31 97.632 48.1201 97.89 47.9301C100.199 46.2501 103.095 45.2 106.265 44.88C109.102 44.59 111.747 44.87 113.915 45.67C122.834 48.98 127.468 58.91 124.244 67.8C121.692 74.83 113.375 81 99.527 86.15C93.166 88.52 83.081 90.7 79.446 91.45C78.874 90.73 78.054 89.6801 77.092 88.4301L79.084 84.15C82.928 75.1 83.796 67.52 81.66 61.6C79.831 56.53 76.138 52.48 71.263 50.21C67.5 48.46 63.386 47.92 59.391 48.63ZM59.485 53.3199C62.775 52.5699 66.201 52.93 69.317 54.39C73.072 56.14 75.918 59.25 77.328 63.16C79.055 67.95 78.22 74.41 74.877 82.27L73.961 84.24C71.656 81.08 69.194 77.5 67.46 74.45C66.676 73.07 65.924 71.67 65.253 70.35L63.027 65.6C61.085 61.06 59.903 56.9499 59.485 53.3199ZM55.083 55.0601C51.259 57.3101 48.502 61.16 47.659 65.62C47.507 66.42 46.945 67.08 46.18 67.36C45.416 67.63 44.561 67.49 43.931 66.97C43.709 66.79 43.482 66.6099 43.252 66.4399C41.186 64.9299 38.595 63.9799 35.754 63.6899C33.212 63.4299 30.843 63.68 28.908 64.4C20.912 67.39 16.759 76.35 19.651 84.37C21.947 90.73 29.458 96.33 41.974 101.01C47.661 103.14 56.64 105.1 60.044 105.81C62.185 103.09 67.768 95.83 70.83 90.41C71.113 89.91 71.391 89.4 71.664 88.9C68.929 85.23 65.672 80.63 63.453 76.72C62.634 75.28 61.846 73.81 61.112 72.37L58.822 67.48C56.903 62.99 55.657 58.8501 55.083 55.0601ZM117.017 64.87C116.406 64.87 115.819 64.63 115.381 64.21C114.955 63.78 114.713 63.1799 114.713 62.5699C114.713 61.9599 114.955 61.37 115.392 60.95C116.245 60.1 117.777 60.08 118.641 60.95C119.067 61.37 119.321 61.9599 119.321 62.5699C119.321 63.1799 119.067 63.77 118.641 64.21C118.215 64.63 117.616 64.87 117.017 64.87ZM91.675 81.8C90.719 81.8 89.827 81.2 89.496 80.25C89.082 79.05 89.72 77.7299 90.922 77.3199C91.331 77.1799 91.73 77.04 92.115 76.89C100.754 73.68 107.311 70.01 111.605 66C112.536 65.13 113.994 65.18 114.861 66.11C115.731 67.04 115.682 68.49 114.753 69.36C110.011 73.8 102.936 77.79 93.723 81.21C93.306 81.37 92.873 81.52 92.427 81.67C92.178 81.76 91.923 81.8 91.675 81.8ZM30.566 87.27C29.967 87.27 29.368 87.03 28.941 86.59C28.504 86.16 28.262 85.56 28.262 84.97C28.262 84.35 28.504 83.77 28.941 83.33C29.805 82.48 31.337 82.48 32.19 83.33C32.628 83.77 32.87 84.35 32.87 84.97C32.87 85.57 32.628 86.16 32.19 86.59C31.764 87.03 31.165 87.27 30.566 87.27ZM47.677 98.5C47.456 98.5 47.233 98.47 47.01 98.4C46.02 98.1 45.132 97.81 44.371 97.52C39.449 95.68 35.566 93.5501 32.83 91.1801C31.868 90.3501 31.764 88.8901 32.596 87.9301C33.429 86.9701 34.884 86.86 35.846 87.7C38.166 89.7 41.578 91.56 45.985 93.21C46.651 93.46 47.445 93.72 48.342 93.99C49.56 94.36 50.25 95.65 49.881 96.86C49.581 97.86 48.667 98.5 47.677 98.5ZM82.495 117.26C81.902 117.26 81.309 117.03 80.858 116.58C79.963 115.67 79.97 114.21 80.874 113.32L82.556 111.65L80.874 109.99C79.97 109.09 79.963 107.63 80.858 106.73C81.753 105.83 83.213 105.82 84.116 106.72L85.829 108.41L87.543 106.72C88.446 105.82 89.904 105.83 90.8 106.73C91.695 107.63 91.688 109.09 90.784 109.99L89.103 111.65L90.784 113.32C91.688 114.21 91.695 115.67 90.8 116.58C90.35 117.03 89.757 117.26 89.163 117.26C88.577 117.26 87.991 117.04 87.543 116.59L85.829 114.9L84.116 116.59C83.668 117.04 83.081 117.26 82.495 117.26Z" fill="black"/>
</svg>
