<svg width="512" height="512" viewBox="0 0 512 512" fill="none" xmlns="http://www.w3.org/2000/svg">
<rect width="512" height="512" fill="#DCDED3"/>
<path d="M99.6023 247C99.4659 245.295 98.8267 243.966 97.6847 243.011C96.5597 242.057 94.8466 241.58 92.5455 241.58C91.0795 241.58 89.8778 241.759 88.9403 242.116C88.0199 242.457 87.3381 242.926 86.8949 243.523C86.4517 244.119 86.2216 244.801 86.2045 245.568C86.1705 246.199 86.2813 246.77 86.5369 247.281C86.8097 247.776 87.2358 248.227 87.8153 248.636C88.3949 249.028 89.1364 249.386 90.0398 249.71C90.9432 250.034 92.017 250.324 93.2614 250.58L97.5568 251.5C100.455 252.114 102.935 252.923 104.997 253.929C107.06 254.935 108.747 256.119 110.06 257.483C111.372 258.83 112.335 260.347 112.949 262.034C113.58 263.722 113.903 265.562 113.92 267.557C113.903 271 113.043 273.915 111.338 276.301C109.634 278.688 107.196 280.503 104.026 281.747C100.872 282.991 97.0795 283.614 92.6477 283.614C88.0966 283.614 84.125 282.94 80.733 281.594C77.358 280.247 74.733 278.176 72.858 275.381C71 272.568 70.0625 268.972 70.0455 264.591H83.5455C83.6307 266.193 84.0313 267.54 84.7472 268.631C85.4631 269.722 86.4688 270.548 87.7642 271.111C89.0767 271.673 90.6364 271.955 92.4432 271.955C93.9602 271.955 95.2301 271.767 96.2528 271.392C97.2756 271.017 98.0511 270.497 98.5795 269.832C99.108 269.168 99.3807 268.409 99.3977 267.557C99.3807 266.756 99.1165 266.057 98.6051 265.46C98.1108 264.847 97.2926 264.301 96.1506 263.824C95.0085 263.33 93.4659 262.869 91.5227 262.443L86.3068 261.318C81.6705 260.312 78.0142 258.634 75.3381 256.281C72.679 253.912 71.358 250.682 71.375 246.591C71.358 243.267 72.2443 240.361 74.0341 237.872C75.8409 235.366 78.3381 233.415 81.5256 232.017C84.7301 230.619 88.4034 229.92 92.5455 229.92C96.7727 229.92 100.429 230.628 103.514 232.043C106.599 233.457 108.977 235.452 110.648 238.026C112.335 240.582 113.188 243.574 113.205 247H99.6023ZM119.328 283V230.636H157.067V242.091H133.544V251.091H155.124V262.545H133.544V271.545H156.964V283H119.328ZM164.117 230.636H181.81L193.981 260.295H194.594L206.765 230.636H224.458V283H210.549V252.727H210.14L198.481 282.591H190.094L178.435 252.523H178.026V283H164.117V230.636ZM245.539 283V230.636H282.357V242.091H259.755V251.091H280.107V262.545H259.755V283H245.539ZM338.313 256.818C338.313 262.648 337.18 267.565 334.913 271.571C332.646 275.56 329.586 278.585 325.734 280.648C321.881 282.693 317.586 283.716 312.847 283.716C308.075 283.716 303.762 282.685 299.91 280.622C296.075 278.543 293.023 275.509 290.756 271.52C288.506 267.514 287.381 262.614 287.381 256.818C287.381 250.989 288.506 246.08 290.756 242.091C293.023 238.085 296.075 235.06 299.91 233.014C303.762 230.952 308.075 229.92 312.847 229.92C317.586 229.92 321.881 230.952 325.734 233.014C329.586 235.06 332.646 238.085 334.913 242.091C337.18 246.08 338.313 250.989 338.313 256.818ZM323.688 256.818C323.688 253.682 323.271 251.04 322.435 248.892C321.617 246.727 320.398 245.091 318.779 243.983C317.177 242.858 315.2 242.295 312.847 242.295C310.495 242.295 308.509 242.858 306.89 243.983C305.288 245.091 304.069 246.727 303.234 248.892C302.415 251.04 302.006 253.682 302.006 256.818C302.006 259.955 302.415 262.605 303.234 264.77C304.069 266.918 305.288 268.554 306.89 269.679C308.509 270.787 310.495 271.341 312.847 271.341C315.2 271.341 317.177 270.787 318.779 269.679C320.398 268.554 321.617 266.918 322.435 264.77C323.271 262.605 323.688 259.955 323.688 256.818ZM340.998 242.091V230.636H386.509V242.091H370.759V283H356.748V242.091H340.998ZM440.126 256.818C440.126 262.648 438.992 267.565 436.725 271.571C434.458 275.56 431.398 278.585 427.546 280.648C423.694 282.693 419.398 283.716 414.66 283.716C409.887 283.716 405.575 282.685 401.722 280.622C397.887 278.543 394.836 275.509 392.569 271.52C390.319 267.514 389.194 262.614 389.194 256.818C389.194 250.989 390.319 246.08 392.569 242.091C394.836 238.085 397.887 235.06 401.722 233.014C405.575 230.952 409.887 229.92 414.66 229.92C419.398 229.92 423.694 230.952 427.546 233.014C431.398 235.06 434.458 238.085 436.725 242.091C438.992 246.08 440.126 250.989 440.126 256.818ZM425.501 256.818C425.501 253.682 425.083 251.04 424.248 248.892C423.43 246.727 422.211 245.091 420.592 243.983C418.989 242.858 417.012 242.295 414.66 242.295C412.308 242.295 410.322 242.858 408.702 243.983C407.1 245.091 405.881 246.727 405.046 248.892C404.228 251.04 403.819 253.682 403.819 256.818C403.819 259.955 404.228 262.605 405.046 264.77C405.881 266.918 407.1 268.554 408.702 269.679C410.322 270.787 412.308 271.341 414.66 271.341C417.012 271.341 418.989 270.787 420.592 269.679C422.211 268.554 423.43 266.918 424.248 264.77C425.083 262.605 425.501 259.955 425.501 256.818Z" fill="white"/>
</svg>
